<?xml version="1.0" standalone="no"?>
<!DOCTYPE svg PUBLIC "-//W3C//DTD SVG 20010904//EN"
 "http://www.w3.org/TR/2001/REC-SVG-20010904/DTD/svg10.dtd">
<svg version="1.0" xmlns="http://www.w3.org/2000/svg"
 width="283.000000pt" height="113.000000pt" viewBox="0 0 283.000000 113.000000"
 preserveAspectRatio="xMidYMid meet">
<metadata>
Created by potrace 1.10, written by Peter Selinger 2001-2011
</metadata>
<g transform="translate(0.000000,113.000000) scale(0.100000,-0.100000)"
fill="#000000" stroke="none">
<path d="M153 988 c-26 -30 -48 -87 -89 -236 -59 -217 -56 -373 8 -427 16 -14
38 -25 47 -25 26 0 97 55 123 94 19 29 27 34 50 29 23 -5 30 1 57 48 27 48 31
51 31 27 0 -16 9 -37 21 -49 21 -21 22 -21 39 -3 10 11 25 39 33 64 13 37 17
41 22 25 23 -70 35 -86 63 -83 22 2 33 14 58 66 l31 62 6 -36 c13 -81 48 -84
113 -8 l48 57 20 -44 c40 -84 110 -92 142 -17 13 33 18 38 21 23 2 -11 15 -59
29 -107 l24 -86 -49 -94 c-80 -154 -77 -218 11 -218 53 0 86 24 99 72 11 44 8
70 -23 169 l-21 66 59 86 c32 48 64 89 71 91 7 3 33 -12 57 -33 62 -54 92 -59
162 -27 65 30 88 31 164 10 30 -8 133 -21 229 -29 168 -15 183 -14 445 10 149
13 326 27 394 31 67 4 122 10 122 15 0 4 -21 6 -47 4 -27 -3 -97 -7 -158 -9
-60 -3 -213 -15 -340 -27 -202 -18 -250 -20 -390 -10 -89 5 -199 19 -247 31
-92 22 -117 20 -180 -11 -55 -28 -81 -24 -134 22 -68 59 -86 54 -156 -49 l-56
-83 -16 55 c-9 31 -24 88 -33 127 -8 39 -19 67 -23 62 -4 -4 -13 -29 -20 -55
-7 -26 -20 -54 -30 -63 -28 -25 -67 -4 -90 50 -11 25 -26 45 -34 45 -8 0 -34
-22 -59 -50 -25 -27 -52 -50 -61 -50 -17 0 -36 55 -36 105 0 17 9 71 21 122
22 97 20 163 -6 163 -14 0 -20 -33 -30 -194 -6 -93 -38 -187 -75 -221 -24 -21
-35 -6 -66 87 -12 40 -24 71 -25 68 -1 -3 -3 -24 -4 -46 -4 -48 -39 -134 -55
-134 -29 0 -41 118 -15 144 20 20 4 56 -25 56 -23 0 -67 -57 -93 -118 -9 -23
-24 -60 -34 -82 -18 -44 -103 -130 -128 -130 -58 0 -85 56 -85 177 0 103 15
176 65 333 44 137 57 160 91 160 32 0 54 -49 54 -120 0 -27 5 -50 10 -50 15 0
12 118 -2 136 -51 62 -72 68 -105 32z m518 -240 c-10 -31 -11 -30 -6 16 3 27
6 63 7 80 1 19 3 14 5 -16 2 -25 -1 -61 -6 -80z m-296 -173 c-23 -95 -95 -180
-87 -102 4 49 82 181 97 165 2 -2 -3 -30 -10 -63z m706 -316 c34 -111 15 -179
-51 -194 -16 -4 -39 -1 -51 5 -19 10 -21 18 -15 56 5 38 79 204 91 204 2 0 14
-32 26 -71z"/>
</g>
</svg>
