<svg width="270" height="56" fill="none" xmlns="http://www.w3.org/2000/svg"><g clip-path="url(#a)"><path d="M99.17 0a28 28 0 1 0 0 56 28 28 0 0 0 0-56" fill="#FEFEFE"/><path d="M105.479 31.708a2.363 2.363 0 0 0 .834 2.054c.356.325.585.766.647 1.244h.734c.747 0 .486.821-.099.946.087.348-.361.485-.535.535-.175.05 0 .36-.598.36 0 .187-.373.374-.771.25 0 0-.137.385-.747.286a.735.735 0 0 1-.871-.062s-.423.473-.983-.15c-.56-.622-1.245-1.804-1.979-2.227l-1.891 1.43a.796.796 0 0 0-.075-.348l1.244-.908a1.246 1.246 0 0 1-.099-.747c.359.05.701.187.995.399.523-.063.635-.548.635-1.108 0-.36.174-.722.597-.672a18.042 18.042 0 0 1-2.563-2.638l-.76-.722a6.58 6.58 0 0 0-1.032-.747c.163.054.32.12.473.2-.548-.548-1.008-1.021-1.245-1.332-.846-.983-2.837-1.332-4.554-1.245a3.46 3.46 0 0 0-2.912 1.917c0 .075.136.236.1.336.671-1.245 2.102-2.066 4.977-1.755a2.38 2.38 0 0 1-.162.486 1.83 1.83 0 0 1-.398 2.376c-.373.374-.722.374-.884.822a2.95 2.95 0 0 0-1.593-.224c-.062 0-.111.15-.149.211a2.675 2.675 0 0 1 2.103.921 3.808 3.808 0 0 0 2.315 1.469s.336.1.448.784c.023.27.103.534.236.771-.224.212-.66.622-.833.635-.61 0-.685 0-1.02.373-.337.374-.835.846-.81 1.133.013.08.034.16.063.236-.672.423-1.145.909-.797 1.145.349.236 1.245.373 1.145 1.145-.324.1-.66.199-.996.274a1.158 1.158 0 0 0-.721-.66c-.336-.1.137-.697-.535-1.381-.672-.685.336-.97 1.045-1.245.71-.273-.15-.908 1.966-1.344l-.97-1.008c-2.49.523-1.457 1.494-2.975 2.14-.796.35-.448 1.332.261 1.892a1.244 1.244 0 0 1 .411 1.145c0 .174.672.15.697.598l-.92.149c-.163-.61-.71-.597-.76-.834-.174-.796-.734-1.182-.784-1.456-.05-.274.124-.348.137-1.406.012-1.058.547-.61.734-1.32.187-.709.784-1.468 2.327-1.829l-1.07-1.095c-.46.2-1.668.722-1.88 1.394-.21.672-1.244.336-.982 2.489-1.344-1.83-.523-1.755-.498-2.775.025-1.02 1.008-1.083 1.008-1.083a1.88 1.88 0 0 1-.261-2.277 1.494 1.494 0 0 1 0-.473l-7.156-7.467c-.162.934.125 1.643 0 2.7a8.71 8.71 0 0 0-.323 2.963c.647 3.857-1.344 2.812 1.717 8.935.859 1.705 1.145.858 2.75 3.31a4.28 4.28 0 0 0 4.318 1.543 3.844 3.844 0 0 0 3.298-.535c-.771.622-.784.448-1.244 1.045-.647.934-.2 2.253-.361 3.124.336-.2 1.705-1.033 2.028-1.145v-.846a.56.56 0 0 1 .772-.498c.274 0 .498.187.46.71-.037.522-.236 2.588-.236 2.588-.369.029-.74-.01-1.095-.112v.174c0 .299 1.107.386 1.418.236 0 0 .087-.983.087-1.244.195.399.533.71.946.871.297-.455.734-.8 1.245-.983v-.286c0-.921 1.406-1.805 1.543-2.34l.361.486c-.162 1.468-1.855 1.493-2.315 3.733.29.233.545.505.76.809.621-1.805 2.364-2.327 2.675-4.692a9.944 9.944 0 0 1-1.792-2.252c.15 1.543.087 1.344-1.12 2.401 0-1.045.112-1.244.211-1.38a1.793 1.793 0 0 0 .386-1.955c-.236-.473-.448-.92-.61-1.244a44.089 44.089 0 0 0 2.937 3.907c1.245 1.17 3.547.46 4.704.772 1.158.311 5.214-1.244 5.936-4.057.375-1.174.938-2.28 1.668-3.273.523-1 .776-2.12.734-3.248.087-5.712 1.083-4.07 1.132-7.902l-10.254 7.678Z" fill="#323A45"/><path d="M91.118 32.106a1.518 1.518 0 0 1-1.008-2.128c.635.399.983.224 1.63-.136.648-.361 1.058-.299 1.133 0a2.663 2.663 0 0 0-1.406 1.841 1.345 1.345 0 0 1 .473-1.593 1.244 1.244 0 0 0-.822 2.016Z" fill="#323A45"/><path d="M91.965 29.182c.107-.1.234-.176.373-.224-.859-.174-.983.784-1.53.846a.66.66 0 0 0 .796-.211c.249 0 .56-.15.373-.398l-.013-.013ZM82.668 20.994c.162-.137.411 0 .498-.112.087-.112-.15-.386-.535-.411-.386-.025-.684-.46-.796-.386-.112.075.298.498.323.859.025.36.162.647.374.535.211-.112 0-.36.136-.485ZM115.957 23.197c-.137-.15-.398 0-.473-.187-.074-.187.212-.361.598-.324.386.038.746-.348.846-.249.1.1-.373.436-.448.784-.075.349-.261.623-.46.473-.2-.15.074-.348 0-.497M96.32 35.417l-3.982-4.156.274-.125 4.007 4.182-.299.1Z" fill="#323A45"/><path d="M90.023 28.859 82.47 20.98l.2-.199 7.479 7.79-.125.287ZM102.853 33.302l13.303-10.08-.161-.224-13.378 10.142.236.162Z" fill="#323A45"/><path d="M91.467 31.684a1.332 1.332 0 0 1 .473-1.593 1.445 1.445 0 0 0-.971.92c.083.275.26.513.498.673Z" fill="#FEFEFE"/><path d="M106.338 34.845c-.324-1.008-1.444-.959-1.817-2.377h-.075l-1.244.933c.937.653 1.97 1.157 3.061 1.493 0 0 .075 0 0-.062" fill="#323A45"/><path d="M85.53 35.89c.428.043.847.148 1.245.31.359.53.675 1.088.946 1.668.747 2.49 2.489 1.456 2.862 2.24-1.07.51-2.402.423-3.596-1.792a23.715 23.715 0 0 1-1.506-2.426M88.244 36.475c.186.423.199 1.057.336 1.244a7.467 7.467 0 0 0 1.742 1.618 3.297 3.297 0 0 0-2.078-2.838M84.373 25.735c-.064.157-.114.32-.149.486a2.334 2.334 0 0 0-.41-.063c0 .1.385.386.348.448a.535.535 0 0 0-.075.536s.174-.287.324-.311c.062.117.163.21.286.26v-.41a.696.696 0 0 1 .261-.299.722.722 0 0 0-.373-.161l-.212-.486ZM83.602 28.15a2.18 2.18 0 0 0 0 .497 2.885 2.885 0 0 0-.436-.186l.336.535c-.016.19-.016.382 0 .572 0 0 .162-.187.262-.212l.273.312a2.836 2.836 0 0 0-.074-.523.423.423 0 0 1 .274-.087l-.399-.261a6.64 6.64 0 0 1-.199-.648M84.112 30.39v.335l-.435.137s0 .075.286.087c0 0 .112 0 .137.087a4.744 4.744 0 0 0 0 .71s.137-.336.224-.374c.078.1.18.177.298.224a2.168 2.168 0 0 0-.074-.336.286.286 0 0 1 .236-.1v-.124c0-.124-.36-.249-.36-.249a2.489 2.489 0 0 0-.275-.398M84.286 33.027l.46.087.187.66c.082-.123.145-.257.187-.398a2.5 2.5 0 0 0 .373.124 2.213 2.213 0 0 0-.31-.51c.012-.164.054-.324.124-.473-.187-.075-.262.125-.386.112l-.299-.398v.485c-.139.085-.265.19-.373.311M86.116 33.7l-.075.398h-.41l.385.261a1.331 1.331 0 0 0-.1.374c.11-.088.227-.167.349-.237l.2.174c.068.06.149.107.236.137a1.536 1.536 0 0 1-.075-.211.94.94 0 0 0-.112-.212s.137-.174.261-.174c.125 0 0 0-.473-.112l-.186-.398ZM87.111 34.72v.236h-.236a.797.797 0 0 0 .286.224c.025.146.067.288.124.424a.884.884 0 0 1 .075-.25c.096.075.187.154.274.237 0-.1-.187-.286-.2-.336-.012-.05.138 0 .138-.062a1.305 1.305 0 0 0-.274-.15s-.187-.348-.187-.323ZM87.671 34.036h-.373c.104.132.23.246.373.336-.03.156-.03.316 0 .473 0 0 .224-.287.286-.262l.349.137-.162-.336a1.39 1.39 0 0 0 .162-.249 1.331 1.331 0 0 0-.361-.1l-.224-.335-.05.336ZM88.356 33.513s-.075-.224-.112-.261c.012-.1.012-.2 0-.299l-.112.15a.948.948 0 0 0-.3-.25s.113.187.163.3l-.087.061.248.075s.125.224.187.224M87.41 31.82c.181.284.404.54.66.76v-.324h.174a.668.668 0 0 1 .224 0 .796.796 0 0 0-.411-.137v-.286l-.15.211s-.31 0-.41-.124M88.356 30.974a1.244 1.244 0 0 0-.1-.535s.187-.137.212-.274h-.411s-.174-.261-.249-.348c.02.132.02.266 0 .398h-.348c.098.114.211.214.336.299a2.6 2.6 0 0 0-.088.535l.361-.311c.134.044.254.12.349.224M88.107 29.257a1.481 1.481 0 0 0-.361-.423l.15-.523-.412.236a1.246 1.246 0 0 0-.298-.236v.41c-.1.087-.196.178-.286.274l.336.1v.473c.073-.15.16-.29.26-.423.175.013.347.05.511.112M86.128 26.98c.056.141.102.287.137.435a4.257 4.257 0 0 1-.286.398c.124.01.249.01.373 0 0 0 .1.349.137.448.037.1.112-.274.187-.423a.56.56 0 0 0 .224 0 .732.732 0 0 1 .248 0 2.717 2.717 0 0 0-.385-.436v-.547a1.927 1.927 0 0 0-.287.311s-.286-.199-.373-.187M85.369 25.71a2.098 2.098 0 0 0 0 .46.921.921 0 0 0-.212.225.956.956 0 0 1-.236.211.435.435 0 0 0 .373.075v.473l.262-.473a.672.672 0 0 1 .323.249 2.488 2.488 0 0 0-.112-.56.547.547 0 0 1 .336-.41c-.16.005-.317.026-.473.062 0 0-.186-.274-.236-.324-.05-.05 0-.075-.062 0M109.125 29.157l-.099.448-.436.324.336.124.038.585.211-.473.448-.1-.162-.286.237-.535-.423.2-.15-.287ZM111.042 27.726l-.087.336-.386.249.361.212-.087.298.249-.398.41.137-.174-.448.212-.361-.324.112-.174-.137ZM106.873 31.173l-.174.399-.573.224.486.186.037.548.373-.423h.498l-.261-.349.286-.386-.423.063-.249-.262ZM108.503 31.074l-.087.373-.423.249.435-.025-.124.56.261-.498.523-.087-.236-.224.286-.373-.423.162-.212-.137ZM110.619 29.282l-.038.348-.311.224.199.025-.062.15.386-.262.062-.137.187-.286-.324.075-.099-.137ZM107.732 32.965l-.15.523-.423.286h.311v.41l.212-.385h.386l-.187-.336.212-.398-.262.199-.099-.299ZM107.956 34.147l-.274.312s.074 0 0 .124c-.066.14-.149.269-.249.386l.361-.411c.144.026.291.026.435 0l-.286-.2s.423-.248.448-.36a1.238 1.238 0 0 1-.498.162M108.727 34.26l.336.111.025.312.224-.423.237-.088-.237.013-.174-.373-.125.298-.286.15ZM109.897 34.994l.025-.423.386-.287-.473.05.049-.311-.298.386-.274.348.411-.137.174.374ZM109.076 32.567l.51-.311.274.274v-.473l.435-.324h-.51v-.373l-.212.435c-.153.002-.305.031-.448.087a.6.6 0 0 1 .262.112l-.311.573ZM110.034 31.012l.323-.15.224.15v-.349l.349-.261h-.311v-.299c-.163.155-.306.33-.423.523l-.162.36M111.714 29.555l.224-.51.498-.236h-.424l.299-.423s-.423.51-.597.684c-.106.11-.223.211-.349.299l.324-.15.025.336ZM111.751 29.867l-.087.323-.448.41.336-.111.075.51.149-.51.361-.037-.162-.25.224-.161-.373.1-.075-.274ZM109.026 35.554l-.237.31-.41.138.249.149-.137.41.361-.298.273.15-.087-.399.423-.249-.398.063-.037-.274ZM108.08 36.91s-.46.324-.535.51l-.286.15.149-.25h-.274l.461-.273.211-.436-.087.361.361-.062ZM106.176 38.242l-.46.199-.486.137.224.062v.199l.349-.261.286-.075a.197.197 0 0 1-.049-.13c0-.049.017-.095.049-.131M106.748 37.62l-.286.124-.087.249-.087-.2-.174-.062.249-.124.385.012Z" fill="#FEFEFE"/><path d="m108.827 36.823-.1.224-.286.112.137-.211.249-.125Z" fill="#323A45"/><path d="m109.511 36.09.237.26a3.039 3.039 0 0 0-.287.623l.473-.324.274.274v-.535l.485-.361h-.435a.492.492 0 0 0 0-.386l-.299.423-.448.025ZM110.756 35.155l.423-.261c.119.092.223.201.311.324v-.473l.386-.286-.411-.1.062-.41-.373.41-.398-.062.261.31-.261.548ZM112.274 35.516l.361-.572-.075.498.461.062-.448.36a1.018 1.018 0 0 0 0 .685l-.374-.398-.498.2.336-.424-.261-.373.498-.038ZM112.498 33.96l.522-.385s.287.386.461.336l-.237-.597.386-.3h-.473l-.137-.447-.186.523-.523.149.398.174-.211.548ZM111.017 33.413l.249-.41.361.15-.125-.4.286-.385-.336.15-.136-.374-.187.523-.386.211.274.038v.497ZM112.199 33.002l.075-.46.46-.274-.386-.05-.049-.472-.212.435-.261-.075.174.349-.187.299.249-.075.137.323ZM112.996 31.77l.435-.285.174.137.075-.3.261-.236h-.298l.049-.41-.286.448-.497.124.348.087-.261.436ZM112.56 31.285l.087-.373.324-.075-.224-.298v-.423l-.374.485-.298.46.323-.149a.922.922 0 0 0 .15.373M113.668 30.053v-.348l.435-.361h-.435v-.237l-.361.3-.486.136.336.112-.186.473.274-.262c.118.06.244.106.373.137M113.294 28.896l-.386.162-.074-.311-.125.398-.348.261.236-.037-.087.373.361-.373.286-.087-.137-.162.274-.224ZM110.98 31.41l.099.211-.224.2.286-.075.112.286c.003-.124.028-.246.075-.361.112-.015.225-.015.336 0l-.261-.15.087-.335-.274.273-.236-.05ZM110.457 32.144l.087.212-.224.199.286-.075.112.286v-.36c0-.05.349 0 .349 0a.661.661 0 0 0-.249-.15c.015-.114.04-.227.075-.336l-.299.261-.137-.037ZM110.221 33.264l-.075.261-.149.287.273-.1.224-.398-.137.05-.136-.1ZM112.759 26.544l-.149.286-.523.349.436-.05.025.348.286-.348.498.062-.237-.299.286-.31-.448.136-.174-.174ZM112.697 28.61l.323-.3.299.35-.149-.56.348-.3-.41.1-.05-.199-.137.299-.299.1.212.111-.137.399ZM112.037 27.789l.2.26.261-.235-.112.286.124.037-.46.386-.05-.162h-.236l.261-.187.012-.385Z" fill="#FEFEFE"/><path d="m113.618 28.697.274-.274a.65.65 0 0 1-.287-.112l.013.386ZM114.215 28.087l.187-.199a.319.319 0 0 0 .211.137.56.56 0 0 1-.398.062Z" fill="#323A45"/><path d="m114.277 27.092-.087.299-.311.074.324.125v.186a.314.314 0 0 0 .199-.273c.013-.128.042-.254.087-.374 0 0-.1.212-.224 0M114.464 25.237l-.162.598-.547.261.435-.05-.124.598.435-.598.685-.137-.423-.087.074-.224-.236.038-.137-.399Z" fill="#FEFEFE"/><path d="M114.725 26.432s0 .299-.099.361l.386-.249a.263.263 0 0 1-.287-.112Z" fill="#323A45"/><path d="M103.177 37.869c.295.089.553.272.734.522-.25.118-.446.327-.547.585-.125.398-.884 0-.884.884 0 .298.946.547-.075.821 0 0-.535-.299-.597-.448-.062-.15-.323-.92.187-1.244 1.095-.56.286-.71 1.244-1.17M100.24 39.15c.232.24.501.443.797.598.161-.51-.274-.822 0-1.245.273-.423.622 0 .821-.896.099-.51.523-.186.46-.485a5.265 5.265 0 0 0-1.132-1.53s-.784.534-.797.646c-.012.112 1.008.735.896.946-.112.212-.56.125-.535.548.025.423-1.008.074-.547 1.493M92.151 40.743a19.583 19.583 0 0 0 3.236-1.245s0 .424-1.344 1.07a2.228 2.228 0 0 1-1.892.187" fill="#FEFEFE"/><path d="M93.794 41.204a3.734 3.734 0 0 0-.46 2.215 1.817 1.817 0 0 1-.237 1.381c-.66.46-.747.398-.747.398.194-.706.336-1.425.423-2.153a2.49 2.49 0 0 1 1.02-1.792" fill="#323A45"/><path d="M111.328 37.93c0 1.07-.56.946-.61 1.818 0 .41-1.58 1.306-1.804.995-.224-.311.074-.261.249-1.045.124-.573.983-.237 1.369-1.767.264-.03.531-.03.796 0ZM109.76 37.607c-.809.821-.137 1.369-.747 1.58-.609.212-1.929.921-1.356 1.469.572.547-1.481 1.033-1.245.61.237-.423-.945-.361-.472-1.095.472-.735 1.953-.56 2.252-1.02.299-.461.187-.847.722-1.644.297-.06.606-.024.883.1" fill="#FEFEFE"/><path d="M107.719 37.756c0 .697-.348 1.543-2.066 1.83-.983.161-.945.933-.771 1.008.174.074 0 .423-.125.61a5.528 5.528 0 0 1-1.008-.25s.324-.336.199-.398c-.124-.062-.771-.336.237-1.008 1.008-.672 1.643.523 2.489-1.244a2.026 2.026 0 0 1 1.008-.573M97.191 44.302c.358.067.725.067 1.083 0v-2.6c0-.523-.212-.635-.498-.635a.534.534 0 0 0-.61.61v2.65M98.311 35.155c-.286.187-.92.585-.908.735.03.322.03.648 0 .97 0 .25-.324.224-.51.25a.585.585 0 0 0 .174-.523c0-.2-.25-.61-.473-.361-.224.248-.523.759-.212.87-.31.15-.522 0-.51-.298.044-.194.11-.382.2-.56 0-.174-.225-.187-.412-.075-.186.112-.522.51-.472.66.05.15.199.162.199.162a.398.398 0 0 1-.623-.274c0-.2 0-.236.175-.436.194-.22.407-.424.634-.61.162-.099.46 0 .697-.124.518-.272.992-.62 1.407-1.033l.136.349.535-.063-.037.361Z" fill="#FEFEFE"/><path d="M106.487 35.778a10.452 10.452 0 0 1-3.895-1.63c-.199-.137-.137-.51.075-.361a14.922 14.922 0 0 0 3.845 1.94c.087 0 0 0 0 0M104.683 36.09a12.592 12.592 0 0 1-2.352-1.42c-.212-.211 0-.46.161-.323.689.642 1.43 1.224 2.216 1.742M103.662 36.661c-.56-.497-.746-.759-1.667-1.48-.212-.224 0-.448.162-.311a21.126 21.126 0 0 1 1.543 1.779" fill="#323A45"/><path d="M95.673 38.889c-.159.09-.326.164-.498.224.174-.287.374-.722-.348-1.108-.274-.15-.174-.1.211-.348.1-.063 0 .497.685.572.087 0 .174 0 .174.1s-.187.224-.224.56ZM96.183 41.726a.472.472 0 1 1-.945 0 .472.472 0 0 1 .945 0ZM98.311 40.445a.473.473 0 1 1-.946 0 .462.462 0 0 1 .46-.473.485.485 0 0 1 .486.46M95.412 41.191c.211-.286.82 0 .697-.61-.2.162-.822 0-.697.61ZM97.378 40.01c.174-.337.859-.15.622-.76-.187.212-.871.162-.622.76ZM97.365 39.462c.15-.349.847-.2.585-.797-.174.224-.87.2-.585.797ZM97.316 38.926c.124-.348.846-.236.535-.821-.162.236-.859.236-.535.821ZM97.813 37.906c-.1.199-.485.224-.572.473-.261-.436.087-.548.336-.697 0 .124.236.224.236.224ZM95.549 40.581c.223-.274.82 0 .734-.572-.212.15-.822 0-.734.572ZM95.66 39.996c.25-.273.81.112.785-.535-.224.15-.822-.112-.784.535ZM95.822 39.424c.274-.25.81.162.822-.486-.237.125-.81-.149-.822.486ZM96.084 38.876c.273-.236.784.187.833-.448-.236.112-.796-.199-.833.448Z" fill="#FEFEFE"/><path d="M96.332 38.329c.3-.237.81.211.897-.423-.25.112-.81-.212-.897.423ZM96.556 37.794c.312-.212.772.274.909-.361-.261.1-.772-.274-.909.36ZM97.988 37.221c-.25 0-.424.299-.125.51a.311.311 0 0 0 .498-.137c-.286 0-.473-.211-.373-.373ZM95.822 37.88c-.211.125-.498-.111-.298-.422a.311.311 0 0 1 .51-.063c-.262.1-.361.374-.212.486ZM96.283 38.08c-.212.137-.51-.1-.324-.41a.31.31 0 0 1 .523-.075c-.274.1-.349.373-.2.485ZM98.162 36.835c-.237.088-.224.473.15.51a.3.3 0 0 0 .36-.36c-.236.15-.51 0-.51-.15ZM98.124 36.437c-.161.2 0 .51.386.374a.299.299 0 0 0 .137-.498c-.137.249-.423.299-.523.124ZM97.9 36.089c0 .236.287.423.51.137a.298.298 0 0 0-.124-.498c0 .286-.224.46-.386.36Z" fill="#FEFEFE"/><path d="m98.846 18.978-.435-1.344h-1.419l1.145-.822-.436-1.344 1.145.834 1.145-.834-.435 1.344 1.144.822h-1.418l-.436 1.344ZM95.723 16.713l-.436-1.344h-1.419l1.145-.834-.435-1.344 1.145.834 1.132-.834-.435 1.344 1.144.834h-1.406l-.435 1.344ZM96.917 13.03l-.435-1.345h-1.419l1.145-.834-.436-1.344 1.145.834 1.145-.834-.448 1.344 1.145.834h-1.406l-.436 1.344ZM100.788 13.03l-.436-1.345h-1.419l1.145-.834-.435-1.344 1.145.834 1.132-.834-.436 1.344 1.145.834h-1.406l-.435 1.344ZM101.982 16.7l-.435-1.331h-1.419l1.145-.834-.436-1.344 1.145.834 1.145-.834-.435 1.344 1.144.834h-1.418l-.436 1.331Z" fill="#323A45"/><path d="M98.921.622a27.378 27.378 0 1 0 0 54.755 27.378 27.378 0 0 0 0-54.755Zm0 46.816a19.477 19.477 0 1 1 13.701-5.709 19.476 19.476 0 0 1-13.763 5.71" fill="#323A45"/><path d="M78.25 29.145c0-.523-.335-.622-.858-.66h-.647c-.46.088-.684.262-.672.697 0 0 0 .162.075.212a.31.31 0 0 0 .149 0l1.692-.087a.497.497 0 0 0 .237 0 .397.397 0 0 0 0-.2h.186v1.133h-.186a.93.93 0 0 0 0-.261H78.1l-1.841.1s-.088 0-.1.061a.525.525 0 0 0 0 .2h-.249V28.996a.921.921 0 0 1 .075-.448c.052-.136.132-.26.236-.361.246-.212.56-.327.884-.324.223-.02.447.006.66.075.248.096.456.276.584.51.085.214.127.442.125.672l-.224.025ZM77.69 23.943l.698.15a.608.608 0 0 0 .199-.075c.028-.077.048-.156.062-.237h.186l-.248 1.245H78.4v-.2c0-.136-.062-.149-.174-.174-.112-.024-1.805-.398-1.817-.385l-.112.062a1.604 1.604 0 0 0-.075.261h-.174s.274-1.381.286-1.418a.982.982 0 0 1 .287-.536.646.646 0 0 1 .584-.112c.623.112.61.722.51 1.158v.31h-.186a1.406 1.406 0 0 0 0-.173c.087-.386 0-.598-.436-.697-.435-.1-.535 0-.597.386v.236c.047.045.11.071.174.075l.846.174.175-.05ZM78.86 19.115c.039-.077.072-.156.1-.237a.423.423 0 0 0-.249-.647.385.385 0 0 0-.597.212c-.03.072-.056.147-.075.224 0 .074.1.112.162.137l.66.31.174.075.734.349h.112a.112.112 0 0 0 .137-.062l.112-.212.162.075-.523 1.132-.125-.025v-.161c0-.137 0-.162-.124-.224l-1.48-.697s-.188-.087-.275 0a.86.86 0 0 0-.161.211l-.175-.087.523-1.145.112-.211a.859.859 0 0 1 .349-.411.586.586 0 0 1 .535 0 .636.636 0 0 1 .286.884.635.635 0 0 1 .684-.212s.386.087.46.087c.125-.124-.124-.261-.223-.311l.074-.15a.522.522 0 0 1 .175.113.485.485 0 0 1 .161.66.487.487 0 0 1-.298.26.635.635 0 0 1-.398 0l-.187-.074c-.286-.112-.486-.187-.622.087l-.112.212-.087-.162ZM79.445 17.422l-.796-.535 1.095-1.805.846.461-.087.137c-.299-.137-.759-.249-.958 0v.124l.124.087 1.519.921c.112.075.136.087.224 0 .048-.066.09-.137.124-.211l.162.1-.66 1.094-.149.025c.047-.084.088-.172.124-.261v-.087l-.124-.05-1.493-.908-.137-.087s-.087 0-.112.062c-.187.31.137.684.398.87l-.1.063ZM82.868 15.244l-.1.125-2.24-.871 1.244.995c.224.187.436.311.623 0l.15.112-.573.71-.137-.125c.162-.224.074-.36-.137-.547l-1.17-.934s-.112-.112-.187-.1c-.074.013-.112.113-.149.15l-.15-.124.648-.797 1.518.585-.908-1.344.585-.635.136.112v.087s-.1.112-.074.187c.055.068.118.131.186.187l1.332 1.058c.1 0 .174-.063.224-.125l.15.125-.772.933-.137-.112.112-.15a.1.1 0 0 0 0-.087.248.248 0 0 0-.087-.074l-1.506-1.245 1.419 1.904ZM85.63 12.357l-1.58 1.481-.125-.137c0-.075.25-.174.175-.299-.075-.124 0 0-.075-.1l-1.245-1.318h-.087l-.211.174-.125-.137 1.519-1.518.647.66-.125.111c-.448-.286-.71-.335-1.082 0a.51.51 0 0 0-.15.175.1.1 0 0 0 0 .087c0 .062.063.1.1.15l.46.485c.25-.187.224-.436 0-.71l.112-.112.859.896-.124.112a.499.499 0 0 0-.747 0l.535.573c.1.112.15.174.274.074l.137-.1c.373-.348.323-.659.074-1.12l.125-.099.66.672ZM85.145 10.267l.722 1.057c.161.237.31.324.547.162l.112.15-.746.535-.1-.15c.224-.186.212-.286 0-.535l-.92-1.244a.385.385 0 0 0-.387 0l-.112-.162.648-.46 1.966.584-.61-.833c-.174-.237-.311-.274-.535-.125l-.1-.15.722-.522.112.15c-.112.112-.2.199-.112.385l.162.262 1.083 1.48-.162.125-2.29-.71ZM87.111 9.284l-.423-.859 1.842-1.033.51.809-.15.087c-.198-.274-.547-.597-.858-.423 0 0-.087 0 0 .112l.075.137.87 1.555c0 .112.075.137.2.1l.211-.112.088.162-1.12.622-.1-.162c.083-.042.162-.092.237-.15a.087.087 0 0 0 0-.099v-.112l-.86-1.53-.074-.137a.088.088 0 0 0-.096-.02.087.087 0 0 0-.028.02c-.311.174-.212.66-.1.958l-.224.075ZM92.562 8.413c.36-.125.286-.548.236-.884a1.467 1.467 0 0 0-.1-.386c-.124-.386-.41-1.07-.883-.908-.473.162-.323.87-.186 1.244.07.249.188.481.348.685a.51.51 0 0 0 .585.199v.186a1.033 1.033 0 0 1-.909-.124 1.444 1.444 0 0 1-.61-.772 1.406 1.406 0 0 1 0-1.032 1.17 1.17 0 0 1 .685-.61 1.07 1.07 0 0 1 .946.1c.293.176.51.455.61.783.13.337.13.71 0 1.046a1.145 1.145 0 0 1-.71.61l-.012-.137ZM93.732 8.164v-.187h.186a.112.112 0 0 0 .087 0v-.162l-.348-1.717s0-.15-.1-.15a.473.473 0 0 0-.186 0h-.038v-.174l2.054-.423.211.909h-.162c-.199-.448-.435-.672-.883-.585a.498.498 0 0 0-.261.112.273.273 0 0 0 0 .174l.149.722c.336 0 .398-.237.398-.585h.162l.236 1.244h-.161a.954.954 0 0 0-.1-.236.386.386 0 0 0-.473-.2l.15.772c0 .187 0 .224.223.2h.2v.174l-1.344.112ZM97.154 4.978h1.157v.186h-.261a.249.249 0 0 0 0 .137l.547 1.456.436-1.319a.54.54 0 0 0 0-.124c0-.175-.2-.237-.324-.224v-.112h.934v.199c-.237 0-.361.273-.448.485l-.672 1.954h-.212l-.809-2.14a.266.266 0 0 0-.211-.262h-.137v-.236ZM101.97 7.753l-2.153-.212v-.199c.087 0 .299.075.336 0a.22.22 0 0 0 0-.124l.187-1.792v-.087h-.274v-.174l2.128.211-.075.921h-.149c-.087-.523-.224-.76-.734-.809a.46.46 0 0 0-.224 0l-.063.075a.725.725 0 0 0 0 .174v.66c.311 0 .486-.125.548-.448h.162l-.112 1.244h-.175c0-.348-.124-.572-.448-.597l-.124.585c0 .149 0 .224.124.26h.175c.497 0 .697-.186.883-.684h.15l-.162.996ZM102.58 6.222l.261-.92 2.041.46-.15.945h-.161c0-.336 0-.808-.361-.883h-.125v.15l-.385 1.741c0 .125 0 .162.074.2.079.005.158.005.237 0V8.1l-1.245-.286v-.174h.286a.084.084 0 0 0 .047-.02.084.084 0 0 0 .028-.042.239.239 0 0 0 0-.125l.386-1.705a.622.622 0 0 1 0-.15s0-.086-.087-.086c-.349-.087-.598.348-.71.647l-.136.062ZM106.512 8.998l-1.979-.71v-.174c.087 0 .274.137.349 0a.42.42 0 0 0 0-.112l.585-1.717a.135.135 0 0 0 0-.075.095.095 0 0 0 .008-.037.095.095 0 0 0-.008-.038.887.887 0 0 0-.249-.1l.062-.186 2.016.71-.274.908h-.124c0-.535 0-.797-.523-.958a.473.473 0 0 0-.224 0h-.074a.96.96 0 0 0-.075.161l-.224.585c.299.125.498 0 .647-.31h.149l-.385 1.169h-.162c.087-.336 0-.585-.311-.684l-.249.734c0 .15-.087.211 0 .286h.162c.472.174.721 0 1.008-.448h.149l-.274.996ZM108.092 8.375l-.36.734v.237l.149.087-.075.162-1.12-.548.075-.174.162.075c.137.074.161 0 .236-.112l.784-1.37s.112-.21.1-.26c-.013-.05-.1-.1-.162-.137h-.1l.087-.162 1.133.547.211.112a.862.862 0 0 1 .399.361.619.619 0 0 1-.39.864.646.646 0 0 1-.506-.055.622.622 0 0 1 .199.697v.212a.851.851 0 0 0 0 .236c.112.137.261-.112.311-.212l.149.075a.813.813 0 0 1-.112.174.473.473 0 0 1-.659.15.47.47 0 0 1-.336-.374.593.593 0 0 1 0-.385l.087-.2c.112-.273.199-.472-.075-.622l-.124-.062h-.087l.074-.162.237.1a.433.433 0 0 0 .57-.057.435.435 0 0 0 .102-.18.388.388 0 0 0-.187-.66.535.535 0 0 0-.224 0c-.075 0-.112.088-.137.15l-.336.66-.075.1ZM110.121 9.955a1.23 1.23 0 0 0-.261.237c-.112.174 0 .299.124.386l-.1.149-.759-.498.1-.162c.224.125.473 0 .672-.199l1.643-1.157.199.137-.523 2.24c0 .211-.062.274.112.398l-.1.15-.92-.61.099-.162s.149.112.212.1c.062-.013 0-.075.074-.138l.063-.385-.635-.486.199-.137.535.361.224-.908-.759.547-.199.137ZM113.12 10.702l-.871.983c-.199.224-.249.386 0 .585l-.137.137-.684-.61.124-.136c.237.186.324.149.535-.075l1.046-1.245a.41.41 0 0 0-.125-.373l.087-.012.61.535-.149 1.954.684-.76c.187-.224.199-.36 0-.547l.125-.137.684.597-.124.137c-.137-.087-.249-.15-.411 0a1.669 1.669 0 0 0-.212.212l-1.244 1.381-.149-.124.211-2.502ZM114.14 12.98l.112.111a1.06 1.06 0 0 0 0 1.245.401.401 0 0 0 .61.075.36.36 0 0 0 0-.498l-.124-.224a1.484 1.484 0 0 1-.224-.647.791.791 0 0 1 .527-.763.796.796 0 0 1 .891.252c.137.151.216.345.224.548h.249l.087.1-.659.647-.1-.137a.93.93 0 0 0 0-1.095.386.386 0 0 0-.267-.167.401.401 0 0 0-.305.08c-.187.174-.1.373 0 .547l.112.174c.224.41.411.834 0 1.245a.863.863 0 0 1-.647.224.884.884 0 0 1-.548-.299.972.972 0 0 1-.236-.635h-.299l-.124-.074.721-.71ZM116.505 16.178a1.11 1.11 0 0 0-.348.1c-.175.112-.125.273 0 .398l-.162.1-.486-.772.162-.1c.162.2.461.137.697.1l1.966-.399.137.2-1.394 1.829c-.136.174-.161.224 0 .41l-.161.1-.598-.946.162-.1s.087.163.149.175c.063.012.088 0 .125-.087l.261-.336-.51-.672h.224l.348.547.573-.734-.921.187h-.224ZM116.978 18.368l.174-.087.075.174a.107.107 0 0 0 0 .075l.149-.063 1.593-.746s.124 0 .124-.125a.354.354 0 0 0-.062-.174v-.087l.174-.075.884 1.904-.834.41v-.136c.386-.299.548-.585.349-1.008 0-.075-.075-.174-.162-.212-.087-.037-.125 0-.174 0l-.66.312c.137.31.311.336.66.236l.074.15-1.12.522v-.15a.654.654 0 0 0 .212-.161.385.385 0 0 0 .087-.498l-.709.336c-.162.075-.212.1-.137.262l.074.186-.174.075-.597-1.12ZM117.836 20.297h.175v.261h.161l1.817-.647s.15 0 .15-.112a.97.97 0 0 0 0-.187v-.074h.186l.685 1.99-.871.324v-.162c.423-.248.609-.51.46-.945 0-.087 0-.187-.137-.237-.137-.05-.124 0-.186 0l-.685.25c.1.323.286.36.635.31v.15l-1.158.398v-.15a.81.81 0 0 0 .224-.136.397.397 0 0 0 .137-.486l-.746.262c-.175.062-.212.074-.162.248v.2h-.187l-.498-1.257ZM119.342 22.4a1.169 1.169 0 0 0-.361 0c-.199 0-.199.211-.161.36h-.187l-.212-.895h.187c.087.236.386.274.635.31l1.991.25v.236l-1.892 1.245c-.186.124-.236.161-.186.36h-.187l-.261-1.082h.186s0 .174.087.199c.087.025.1 0 .15 0l.348-.224-.137-.76h.237l.149.623.784-.51-.933-.112h-.237ZM119.031 24.64h.187v.2c0 .149.124.124.261.099l1.705-.224h.112s.075 0 .075-.062a.845.845 0 0 0 0-.174v-.1h.186l.162 1.244h-.187v-.1c0-.061 0-.148-.074-.186h-.125l-1.866.15s-.137 0-.15.087a.745.745 0 0 0 0 .149v.075h-.186l-.1-1.158ZM120.711 27.004v.262c0 .31.137.485.523.473.386-.013.435-.175.423-.46a.781.781 0 0 0 0-.237c0-.063-.137-.063-.212 0h-1.866c-.075 0-.1 0-.1.1a.782.782 0 0 0-.012.236h-.187v-1.245h.187a.845.845 0 0 0 0 .175c0 .149.062.149.211.149H121.595c.037 0 0-.137 0-.212v-.112h.186v1.481a.896.896 0 0 1-.124.535.637.637 0 0 1-.485.237c-.436 0-.623-.324-.648-.66a.634.634 0 0 1-.522.498h-.212a1.31 1.31 0 0 0-.236.075c0 .161.224.174.336.186v.137a.65.65 0 0 1-.212 0 .5.5 0 0 1-.435-.523.487.487 0 0 1 .149-.36.574.574 0 0 1 .373-.137h.212c.299 0 .51 0 .523-.361v-.237h.211ZM120.263 28.983v.162c-.41.087-.871.348-.908.771a.401.401 0 0 0-.001.173.4.4 0 0 0 .197.273.417.417 0 0 0 .165.052c.236 0 .336-.112.398-.311l.075-.224c.042-.226.15-.434.311-.597a.706.706 0 0 1 .597-.224.775.775 0 0 1 .722.58c.028.107.032.219.012.328a.847.847 0 0 1-.236.535l.149.2v.124h-.921v-.162c.386-.075.797-.324.834-.71a.41.41 0 0 0-.336-.472c-.249 0-.336.186-.398.36v.2c-.137.448-.324.858-.946.809a.848.848 0 0 1-.597-.324.874.874 0 0 1-.15-.597.946.946 0 0 1 .299-.61l-.199-.224v-.137l.933.025ZM78.226 22.139l.186-.622h-.933l.747.585.174.149c.094.077.199.14.311.186.187.063.286-.087.324-.224h.174l-.274.872h-.174c0-.25-.187-.448-.386-.598l-1.568-1.244.075-.237 2.29-.124c.224 0 .286 0 .348-.212h.174l-.323 1.07-.187-.062v-.224c0-.05-.087 0-.15 0h-.385l-.249.784-.174-.1ZM79.333 34.235l.411 1.07-.174.075c0-.087 0-.212-.15-.25a.348.348 0 0 0-.161 0l-1.095.411a1.492 1.492 0 0 0-.424.212.36.36 0 0 0-.149.274.77.77 0 0 0 0 .286.46.46 0 0 0 .374.324.996.996 0 0 0 .56-.1l.846-.336c.162-.062.348-.137.336-.311a.348.348 0 0 0 0-.162h.174l.311.81-.174.061c-.112-.261-.299-.236-.56-.137l-.946.361a1.484 1.484 0 0 1-.336.087.746.746 0 0 1-.585-.161 1.082 1.082 0 0 1-.274-.424 1.245 1.245 0 0 1 0-.672.833.833 0 0 1 .536-.485l1.344-.51a.1.1 0 0 0 .087-.087c0-.062-.063-.212-.075-.249l.124-.087ZM80.068 37.545l-1.158.622c-.261.15-.36.274-.224.51l-.174.1-.41-.76.161-.099c.15.25.25.237.523.1l1.381-.76a.361.361 0 0 0 0-.373l.162-.087.373.66-.87 1.817.895-.498c.261-.137.324-.261.212-.485l.162-.087.41.746-.162.087c-.1-.124-.186-.211-.373-.149l-.274.124-1.617.884-.088-.162 1.07-2.19ZM79.644 40.681l.15-.112.1.15c.099.111.161 0 .273 0l1.419-.984.087-.074c.087-.075 0 0 0-.087a.56.56 0 0 0-.075-.15v-.074l.15-.1.672.958-.162.1v-.075s-.075-.124-.15-.137h-.074l-.1.062-1.443 1.008s-.112.075-.112.137l.074.125-.149.112-.66-.859ZM81.847 41.067l.76-.573 1.244 1.518-.697.648-.112-.112c.236-.25.498-.648.274-.909 0 0-.075-.062-.112 0l-.125.087-1.369 1.157c-.1.075-.124.1 0 .2.046.065.096.127.15.186l-.15.112-.821-.958.15-.124c.055.068.118.13.186.186a.075.075 0 0 0 .087 0 .584.584 0 0 0 .112-.074l1.332-1.133a.485.485 0 0 0 .124-.1v-.124c-.212-.249-.66 0-.933.125l-.1-.112ZM83.913 45.547l-1.493-1.394.124-.137s.174.224.286.137c.112-.087 0 0 .087-.075l1.245-1.331a.087.087 0 0 0 0-.063v-.074a.833.833 0 0 0-.174-.187l.124-.137 1.48 1.369-.609.697-.1-.112c.25-.46.287-.722 0-1.045a.498.498 0 0 0-.186-.125.087.087 0 0 0-.075 0 .41.41 0 0 0-.137.112l-.46.498c.199.224.448.174.697 0l.112.112L84 44.7l-.124-.112c.224-.261.248-.522 0-.721l-.535.56c-.1.112-.15.174 0 .286l.037.087c.348.324.647.261 1.082 0l.1.112-.647.635ZM85.369 46.443a.236.236 0 0 1-.112-.15.324.324 0 0 1 .112-.249l.996-1.369s0-.1.112-.112a.236.236 0 0 1 .186.075c.336.236.324.523.112.933l-.224.349a2.29 2.29 0 0 1-.162.199c-.348.386-.622.56-1.02.274l-.1.161c.173.135.366.24.573.312a1.12 1.12 0 0 0 .734-.162c.187-.125.348-.286.473-.473.204-.249.314-.562.311-.884a.91.91 0 0 0-.112-.398 1.245 1.245 0 0 0-.286-.323l-.224-.162-.871-.56-.112.15a.6.6 0 0 1 .137.111.112.112 0 0 1 0 .125l-1.083 1.493a.2.2 0 0 1-.087.087.933.933 0 0 1-.212-.124l-.112.149.871.635.1-.087ZM88.181 47.351l.137.075c-.074.41 0 .92.336 1.107a.411.411 0 0 0 .573-.162.361.361 0 0 0-.112-.485l-.174-.137a1.245 1.245 0 0 1-.411-.51.722.722 0 0 1 0-.635.747.747 0 0 1 1.07-.36c.176.089.313.24.386.423l.224-.087h.112l-.386.846-.137-.075a.921.921 0 0 0-.323-1.02.36.36 0 0 0-.523.149c-.124.224 0 .373.162.498l.15.124c.335.286.634.598.347 1.158a.87.87 0 0 1-.51.448.822.822 0 0 1-.572-.088.896.896 0 0 1-.436-.472l-.261.099h-.124l.472-.896ZM90.322 47.724l.386-.883 1.854.71-.299.908h-.137c.075-.324.112-.797-.199-.921h-.124a.703.703 0 0 0 0 .149l-.647 1.668v.211l.211.087-.075.175-1.132-.436v-.174a2.061 2.061 0 0 0 .305.083c.015 0 .03-.003.043-.009a.287.287 0 0 0 0-.124l.623-1.63c.023-.045.044-.09.062-.137 0 0 0-.087-.075-.1-.31-.124-.622.274-.771.548l-.025-.125ZM92.661 49.193l.535-.76v.922l-.584-.162-.125.187.734.211V50.151c0 .037-.149 0-.211 0v.174l1.02.286v-.186c-.186 0-.199-.125-.224-.336l-.162-2.277h-.224l-1.144 1.63c-.137.199-.311.448-.56.423v.174l.833.224v-.174c-.137 0-.273-.125-.224-.324.05-.11.113-.215.187-.31l.15-.262ZM99.132 50.139h.15c.137.398.448.809.846.796a.41.41 0 0 0 .423-.423.375.375 0 0 0-.348-.36h-.212a1.12 1.12 0 0 1-.61-.237.772.772 0 0 1-.286-.573.747.747 0 0 1 .76-.834.82.82 0 0 1 .534.162l.162-.174h.125l.074.933h-.137c-.137-.373-.41-.746-.784-.721a.374.374 0 0 0-.398.385c0 .25.212.311.386.349h.199c.436.087.846.211.884.821a.965.965 0 0 1-.224.647.862.862 0 0 1-.548.224.933.933 0 0 1-.61-.211l-.174.224h-.137l-.075-1.008ZM104.334 50.325c.361-.1.324-.522.286-.858l-.087-.386c-.112-.398-.361-1.095-.846-.97-.485.124-.373.858-.261 1.244a2.5 2.5 0 0 0 .323.709.488.488 0 0 0 .573.212v.186a1.046 1.046 0 0 1-.909-.162 1.46 1.46 0 0 1-.56-.808 1.327 1.327 0 0 1 .393-1.388 1.146 1.146 0 0 1 .9-.249c.161.026.315.088.45.18.28.2.482.49.572.822.087.35.052.718-.1 1.045a1.133 1.133 0 0 1-.746.56l.012-.137ZM105.691 50.139l-.063-.175h.262v-.161l-.573-1.656s0-.136-.124-.136a.723.723 0 0 0-.174 0h-.087v-.175l1.991-.684.323.871h-.149c-.249-.41-.523-.597-.958-.448a.388.388 0 0 0-.237.137.235.235 0 0 0 0 .174l.237.684c.323-.087.373-.273.311-.622h.162l.398 1.158h-.15a.662.662 0 0 0-.136-.224.376.376 0 0 0-.486-.137l.262.734c0 .174.074.212.248.162h.187l.062.174-1.306.324ZM109.362 47.5l-.162-.908.685.622-.523.287v.236l.672-.373.299.286s.087.062.074.124c-.012.063-.112.112-.162.15l.1.149.908-.51-.087-.162c-.174.087-.224 0-.385-.087l-1.73-1.506-.187.112.324 1.966c0 .25.087.535-.112.685l.099.162.747-.424-.087-.161c-.125.074-.286.112-.386 0a1.235 1.235 0 0 1-.087-.349v-.298ZM112.597 46.642l-.124.087-1.917-1.431.946 1.244c.175.237.336.398.573.212l.112.149-.685.51-.112-.124c.212-.162.162-.311 0-.548l-.896-1.244s-.087-.137-.149-.137a.39.39 0 0 0-.187.1l-.099-.15.697-.51 1.244.97-.56-1.505.772-.573.112.15s-.137.087-.125.162c.034.08.08.157.137.224l1.008 1.368h.299l.112.137-.921.685-.112-.15.137-.1v-.061a.08.08 0 0 0 .01-.038.081.081 0 0 0-.01-.037.154.154 0 0 0 0-.1l-1.145-1.555.883 2.265ZM115.584 41.913l-.572-.46s-.125-.1-.112-.175a.461.461 0 0 1 .112-.186c.174-.212.348-.262.622 0 .274.26.274.448.099.684l-.149.187.149.124v-.075l.1-.112c.187-.199.361-.074.61.088l.174.124c.1.09.227.142.361.15a.436.436 0 0 0 .336-.162.473.473 0 0 0 0-.66l-.149-.15-.1.125c.075.075.286.274.137.349a.663.663 0 0 1-.212-.1l-.199-.1a.594.594 0 0 0-.697 0 .629.629 0 0 0 .155-.473.629.629 0 0 0-.242-.435.66.66 0 0 0-.51-.137.806.806 0 0 0-.423.299l-.149.162-.747.92.149.125v-.075s.087-.124.162-.124c.075 0 .187.124.236.162l1.245 1.032c.112.1.162.137.062.25l-.099.136.149.112.747-.92-.15-.113a.924.924 0 0 0-.099.112.114.114 0 0 1-.069.024.109.109 0 0 1-.068-.024l-.1-.074-.622-.51-.137-.1ZM117.774 41.403l-.162-.1.112-.162c.063-.124 0-.162-.124-.236l-1.431-.959-.1-.062h-.099a.443.443 0 0 0-.1.125v.087l-.149-.112.659-.97.15.111v.075s-.087.112-.062.186c.024.075 0 0 0 .063l.099.074 1.469.983a.158.158 0 0 0 .161 0l.087-.111v-.063l.15.1-.66.97ZM117.264 37.258v-.111l.896.472v.15c-.373-.112-.883-.175-1.07.174a.411.411 0 0 0 0 .46c.09.15.213.279.361.374.119.086.244.165.373.236.158.089.325.16.498.212.145.049.303.049.448 0a.514.514 0 0 0 .311-.262c.187-.336 0-.697-.336-.958l.124-.137c.498.423.61.834.336 1.307a.924.924 0 0 1-.709.51 1.357 1.357 0 0 1-.946-.199 1.484 1.484 0 0 1-.697-.76.982.982 0 0 1 0-.858.8.8 0 0 1 .411-.398v-.212ZM119.081 37.147l-.685-.635.921.075-.236.56.174.161.299-.709h.423a.149.149 0 0 1 .137 0v.212l.174.074.411-.97-.162-.075c-.1.186-.149.186-.361.174l-2.29-.15-.087.2 1.456 1.369c.174.174.398.373.324.61l.174.074.348-.796-.224.012a.25.25 0 0 1-.348.187 1.227 1.227 0 0 1-.274-.224l-.174-.15ZM96.955 52.478c.313.23.597.498.846.797.323.396.705.74 1.132 1.02a1.356 1.356 0 0 0 1.643-.15c-.323-.231-.62-.498-.883-.796a5.712 5.712 0 0 0-1.12-.983 1.32 1.32 0 0 0-1.618.112ZM94.49 52.155c.279.268.529.564.747.883.29.425.637.806 1.033 1.133a1.369 1.369 0 0 0 1.655 0 6.31 6.31 0 0 1-.796-.871 5.46 5.46 0 0 0-1.02-1.096 1.32 1.32 0 0 0-1.618-.074M92.089 51.607c.255.297.48.618.672.959.236.459.543.879.908 1.244a1.332 1.332 0 0 0 1.643.187 5.323 5.323 0 0 1-.71-.946 5.886 5.886 0 0 0-.908-1.245 1.32 1.32 0 0 0-1.605-.199ZM89.787 50.836c.23.312.421.65.572 1.008.197.475.461.919.784 1.319a1.368 1.368 0 0 0 1.618.336 4.693 4.693 0 0 1-.61-1.02 7.154 7.154 0 0 0-.784-1.245 1.332 1.332 0 0 0-1.58-.373M87.56 49.778c.19.335.345.69.46 1.058.147.507.369.99.66 1.43a1.356 1.356 0 0 0 1.567.51c-.2-.34-.366-.698-.498-1.07a5.886 5.886 0 0 0-.66-1.343 1.244 1.244 0 0 0-1.53-.585ZM85.444 48.595c.157.357.278.728.36 1.108.09.506.263.993.51 1.444a1.356 1.356 0 0 0 1.506.66 6.096 6.096 0 0 1-.385-1.12 6.384 6.384 0 0 0-.523-1.407 1.332 1.332 0 0 0-1.469-.685ZM83.465 47.177c.118.368.197.748.236 1.132.05.51.175 1.01.374 1.481a1.357 1.357 0 0 0 1.43.809 5.528 5.528 0 0 1-.273-1.145c-.064-.5-.194-.99-.386-1.456a1.244 1.244 0 0 0-1.381-.821ZM81.623 45.547c.09.38.136.768.137 1.157a5.139 5.139 0 0 0 .212 1.518 1.37 1.37 0 0 0 1.356.946 5.117 5.117 0 0 1-.162-1.182c-.02-.497-.099-.99-.236-1.468a1.319 1.319 0 0 0-1.245-.971M79.968 43.767c.044.38.044.765 0 1.145a5.074 5.074 0 0 0 0 1.53 1.357 1.357 0 0 0 1.244 1.083 4.984 4.984 0 0 1 0-1.182c.037-.5.008-1.001-.087-1.493a1.244 1.244 0 0 0-1.244-1.083M78.487 41.813c.018.389-.016.778-.1 1.158-.1.499-.13 1.01-.087 1.518a1.369 1.369 0 0 0 1.133 1.244 6.908 6.908 0 0 1 .075-1.182c.066-.5.066-1.006 0-1.506a1.244 1.244 0 0 0-1.083-1.244M77.156 39.723a4.904 4.904 0 0 1-.212 1.145c-.145.489-.224.995-.236 1.505a1.357 1.357 0 0 0 1.02 1.307c.016-.396.078-.789.187-1.17a5.98 5.98 0 0 0 .261-1.443 1.244 1.244 0 0 0-.97-1.245M76.148 37.52c-.064.38-.172.753-.324 1.108-.202.475-.332.979-.386 1.493a1.344 1.344 0 0 0 .884 1.394c.059-.391.159-.775.299-1.145.181-.468.302-.957.36-1.456a1.32 1.32 0 0 0-.833-1.394ZM75.314 35.23c-.109.37-.255.73-.436 1.07-.246.45-.426.931-.535 1.431a1.356 1.356 0 0 0 .734 1.481c.103-.383.245-.754.424-1.107a6.06 6.06 0 0 0 .497-1.419 1.245 1.245 0 0 0-.684-1.456ZM74.667 32.853c-.14.364-.319.71-.535 1.033-.293.42-.52.881-.672 1.37a1.344 1.344 0 0 0 .585 1.542c.135-.37.31-.725.522-1.057.27-.423.484-.879.635-1.357a1.244 1.244 0 0 0-.535-1.53ZM74.343 30.439a5.55 5.55 0 0 1-.635.97 4.619 4.619 0 0 0-.808 1.245 1.356 1.356 0 0 0 .423 1.605c.175-.354.384-.692.622-1.008.31-.381.574-.799.784-1.244a1.308 1.308 0 0 0-.386-1.568ZM74.219 28a5.302 5.302 0 0 1-.734.896 5.262 5.262 0 0 0-.934 1.245 1.357 1.357 0 0 0 .274 1.63 5.76 5.76 0 0 1 .722-.933 6.1 6.1 0 0 0 .896-1.245 1.307 1.307 0 0 0-.224-1.605M74.33 25.561a6.216 6.216 0 0 1-.808.821 4.876 4.876 0 0 0-1.058 1.108 1.381 1.381 0 0 0 .112 1.655c.238-.318.51-.61.809-.871.382-.32.72-.688 1.008-1.095a1.244 1.244 0 0 0-.062-1.618ZM74.667 23.134a4.801 4.801 0 0 1-.896.747c-.432.27-.819.605-1.145.995a1.368 1.368 0 0 0-.062 1.656 5.36 5.36 0 0 1 .896-.784c.412-.28.785-.615 1.107-.996a1.245 1.245 0 0 0 .1-1.618ZM75.289 20.77a6.05 6.05 0 0 1-.958.647 4.62 4.62 0 0 0-1.245.884 1.331 1.331 0 0 0-.224 1.63c.299-.262.624-.491.97-.684.453-.24.871-.536 1.245-.884a1.244 1.244 0 0 0 .25-1.593M76.123 18.468c-.32.218-.662.401-1.02.547-.482.181-.931.438-1.332.76a1.37 1.37 0 0 0-.349 1.605 4.74 4.74 0 0 1 1.046-.585c.443-.204.86-.458 1.244-.76a1.245 1.245 0 0 0 .41-1.567ZM77.156 16.265c-.34.184-.699.33-1.07.435a4.976 4.976 0 0 0-1.394.622 1.344 1.344 0 0 0-.548 1.568 5.256 5.256 0 0 1 1.083-.485c.475-.152.93-.361 1.356-.622a1.245 1.245 0 0 0 .573-1.518ZM78.4 14.174a4.74 4.74 0 0 1-1.108.324c-.478.08-.943.227-1.38.435a1.357 1.357 0 0 0-.698 1.494c.364-.159.744-.28 1.133-.361.49-.107.966-.27 1.418-.485a1.319 1.319 0 0 0 .635-1.407ZM79.918 12.22c-.364.113-.74.184-1.12.212a5.597 5.597 0 0 0-1.505.336 1.37 1.37 0 0 0-.847 1.43c.38-.126.772-.213 1.17-.26.5-.049.99-.166 1.456-.349a1.245 1.245 0 0 0 .846-1.369ZM81.586 10.428a6.22 6.22 0 0 1-1.157.1 4.742 4.742 0 0 0-1.519.186 1.356 1.356 0 0 0-.983 1.332 5.237 5.237 0 0 1 1.245-.137c.5-.009.996-.076 1.48-.199a1.332 1.332 0 0 0 .996-1.244M80.167 9.955h.635a6.89 6.89 0 0 0 1.493 0 1.244 1.244 0 0 0 1.083-1.157c-.38.043-.765.043-1.145 0a5.587 5.587 0 0 0-1.543 0 1.344 1.344 0 0 0-1.095 1.245 2.22 2.22 0 0 1 .547 0M81.673 8.226c.338.013.674.046 1.008.1.487.098.985.131 1.48.099a1.307 1.307 0 0 0 1.245-1.058c-.389.002-.777-.04-1.157-.124a5.114 5.114 0 0 0-1.53-.125 1.369 1.369 0 0 0-1.245 1.108h.186M83.54 6.62c.396.021.788.088 1.17.2.457.137.929.22 1.406.248a1.319 1.319 0 0 0 1.331-.933 5.114 5.114 0 0 1-1.132-.237 5.688 5.688 0 0 0-1.419-.273h-.1a1.344 1.344 0 0 0-1.319.995M85.73 5.202c.391.068.775.177 1.145.323.474.197.972.331 1.48.399a1.307 1.307 0 0 0 1.407-.797 6.41 6.41 0 0 1-1.095-.348 4.89 4.89 0 0 0-1.556-.423 1.356 1.356 0 0 0-1.319.858M88.057 4.02c.383.107.754.253 1.108.435.441.23.91.406 1.393.523a1.245 1.245 0 0 0 1.53-.647 5.436 5.436 0 0 1-1.057-.448 4.98 4.98 0 0 0-1.43-.573 1.344 1.344 0 0 0-1.494.71M90.496 3.074c.373.14.728.324 1.058.547.412.28.86.501 1.331.66a1.307 1.307 0 0 0 1.531-.548 5.7 5.7 0 0 1-1.008-.56 4.976 4.976 0 0 0-1.32-.684 1.369 1.369 0 0 0-1.555.56M93.01 2.364c.351.184.685.4.995.647.378.32.796.588 1.245.797.197.08.409.123.622.124a1.157 1.157 0 0 0 .958-.473 5.138 5.138 0 0 1-.945-.647 4.977 4.977 0 0 0-1.245-.846 1.37 1.37 0 0 0-1.605.398M95.586 1.916c.328.222.636.472.92.747.37.364.79.674 1.245.92a1.332 1.332 0 0 0 1.605-.186 5.524 5.524 0 0 1-.883-.746 5.189 5.189 0 0 0-1.245-.971 1.369 1.369 0 0 0-1.63.236M98.187 1.73c.312.245.596.525.846.833.316.389.68.736 1.083 1.033a1.243 1.243 0 0 0 1.617 0 4.748 4.748 0 0 1-.809-.833 5.459 5.459 0 0 0-1.082-1.07 1.381 1.381 0 0 0-1.655.074M100.8 1.792c.278.285.532.593.759.92.268.423.595.804.971 1.133a1.307 1.307 0 0 0 1.605.137 6.84 6.84 0 0 1-.709-.908 5.286 5.286 0 0 0-.983-1.245 1.358 1.358 0 0 0-1.643-.037ZM103.388 2.128c.253.304.474.634.66.983.231.45.52.868.859 1.244a1.316 1.316 0 0 0 1.593.3 5.951 5.951 0 0 1-.623-.972 5.12 5.12 0 0 0-.858-1.244 1.384 1.384 0 0 0-1.631-.249M105.927 2.713c.223.324.41.67.56 1.033.19.445.437.863.734 1.244a1.32 1.32 0 0 0 1.556.46 5.648 5.648 0 0 1-.51-.97 5.173 5.173 0 0 0-.722-1.356 1.382 1.382 0 0 0-1.605-.41M108.404 3.547c.192.347.347.714.46 1.095.152.484.37.944.647 1.369a1.335 1.335 0 0 0 1.506.61 4.634 4.634 0 0 1-.423-1.083c-.123-.5-.32-.978-.585-1.419a1.373 1.373 0 0 0-1.145-.634 1.25 1.25 0 0 0-.411.062M110.756 4.617c.159.367.276.751.348 1.145.093.49.248.967.461 1.418a1.317 1.317 0 0 0 1.169.772h.262a5.065 5.065 0 0 1-.311-1.12 5.268 5.268 0 0 0-.436-1.468 1.383 1.383 0 0 0-1.493-.747ZM113.045 5.923c.11.382.177.774.199 1.17.046.497.154.987.324 1.456a1.244 1.244 0 0 0 1.344.884 5.113 5.113 0 0 1-.187-1.133 5.197 5.197 0 0 0-.236-1.506 1.342 1.342 0 0 0-1.245-.87h-.149M115.161 7.467c.086.409.123.826.112 1.244a5.96 5.96 0 0 0 .174 1.48 1.243 1.243 0 0 0 1.245 1.021 6.15 6.15 0 0 1-.075-1.257 5.362 5.362 0 0 0-.137-1.53 1.355 1.355 0 0 0-1.244-.996l-.075.038ZM117.115 9.184c.048.413.048.831 0 1.245-.07.495-.07.998 0 1.493a1.247 1.247 0 0 0 1.145 1.145 5.33 5.33 0 0 1 0-1.158 5.39 5.39 0 0 0 0-1.543 1.35 1.35 0 0 0-1.245-1.12M118.894 11.088c.006.418-.036.836-.124 1.244a5.712 5.712 0 0 0-.125 1.481 1.248 1.248 0 0 0 1.033 1.245c.008-.386.058-.77.15-1.145.125-.5.175-1.016.149-1.53a1.374 1.374 0 0 0-1.083-1.245M120.475 13.179c-.042.392-.121.78-.237 1.157a5.746 5.746 0 0 0-.286 1.469 1.322 1.322 0 0 0 .908 1.343c.045-.381.133-.757.262-1.12.179-.483.284-.99.311-1.505a1.36 1.36 0 0 0-.958-1.344ZM121.831 15.406c-.074.39-.191.77-.348 1.133a5.723 5.723 0 0 0-.423 1.43 1.316 1.316 0 0 0 .771 1.432c.075-.384.201-.756.373-1.108.222-.46.373-.95.448-1.456a1.34 1.34 0 0 0-.821-1.43ZM122.964 17.758c-.11.378-.265.742-.461 1.083a5.685 5.685 0 0 0-.547 1.394 1.306 1.306 0 0 0 .622 1.493c.121-.37.284-.725.485-1.058.266-.438.467-.911.598-1.406a1.372 1.372 0 0 0-.685-1.506M123.86 20.21c-.151.369-.343.72-.573 1.045a5.34 5.34 0 0 0-.684 1.32 1.243 1.243 0 0 0 .46 1.543c.16-.352.356-.686.585-.996a5.58 5.58 0 0 0 .797-1.344 1.357 1.357 0 0 0-.523-1.568M124.507 22.736a5.144 5.144 0 0 1-.672.983 5.766 5.766 0 0 0-.822 1.244 1.333 1.333 0 0 0 .311 1.593 4.93 4.93 0 0 1 .685-.933c.344-.372.633-.79.859-1.245a1.342 1.342 0 0 0-.361-1.617M124.905 25.312a5.761 5.761 0 0 1-.772.909 6.238 6.238 0 0 0-.933 1.157 1.247 1.247 0 0 0 .149 1.618c.224-.319.483-.611.772-.871.386-.337.717-.732.983-1.17a1.378 1.378 0 0 0-.199-1.643ZM125.029 27.925a5.948 5.948 0 0 1-.846.834c-.398.304-.753.66-1.058 1.058a1.248 1.248 0 0 0 0 1.618c.253-.296.536-.563.847-.797a4.988 4.988 0 0 0 1.095-1.058 1.36 1.36 0 0 0 0-1.655M124.917 30.526a5.17 5.17 0 0 1-.933.747 5.665 5.665 0 0 0-1.157.946 1.321 1.321 0 0 0-.175 1.605c.285-.256.594-.486.921-.684a5.11 5.11 0 0 0 1.245-.959 1.399 1.399 0 0 0 .137-1.655M124.532 33.115c-.31.245-.643.457-.996.634-.45.227-.868.512-1.244.847a1.303 1.303 0 0 0-.336 1.58 5.8 5.8 0 0 1 .995-.61c.452-.213.871-.49 1.245-.821a1.37 1.37 0 0 0 .298-1.63M123.885 35.653a6.22 6.22 0 0 1-1.046.535c-.471.177-.918.41-1.331.697a1.332 1.332 0 0 0-.486 1.556c.33-.207.68-.378 1.046-.51.489-.16.951-.395 1.369-.697a1.358 1.358 0 0 0 .448-1.58ZM123.001 38.105c-.33.195-.681.354-1.045.473a6.164 6.164 0 0 0-1.382.572 1.309 1.309 0 0 0-.634 1.494 5.364 5.364 0 0 1 1.082-.399 5.195 5.195 0 0 0 1.431-.56 1.369 1.369 0 0 0 .61-1.53M121.869 40.457a6.001 6.001 0 0 1-1.133.324 5.63 5.63 0 0 0-1.443.423 1.246 1.246 0 0 0-.772 1.418c.358-.13.73-.222 1.108-.273a5.32 5.32 0 0 0 1.48-.423 1.342 1.342 0 0 0 .76-1.469ZM120.487 42.722a4.74 4.74 0 0 1-1.17.199 6.22 6.22 0 0 0-1.468.286 1.308 1.308 0 0 0-.871 1.332 4.78 4.78 0 0 1 1.145-.162 5.408 5.408 0 0 0 1.505-.274 1.342 1.342 0 0 0 .896-1.381M118.869 44.862c-.41.076-.827.105-1.244.087a5.673 5.673 0 0 0-1.493.125 1.305 1.305 0 0 0-1.046 1.244 5.92 5.92 0 0 1 1.145 0h.461c.36.013.72-.025 1.07-.112a1.383 1.383 0 0 0 1.045-1.244M113.431 47.899c.329.006.658.035.983.087.471.066.948.066 1.419 0a1.372 1.372 0 0 0 1.17-1.17 6.656 6.656 0 0 1-1.245 0 5.6 5.6 0 0 0-1.506 0 1.245 1.245 0 0 0-1.169 1.107h.286M111.079 49.267c.375.023.746.086 1.108.187a5.347 5.347 0 0 0 1.518.212 1.48 1.48 0 0 0 1.344-1.133 5.865 5.865 0 0 1-1.244-.15 6.802 6.802 0 0 0-1.519-.148 1.344 1.344 0 0 0-1.244.995l.037.038ZM108.914 50.362c.384.054.76.154 1.12.3.477.19.981.308 1.493.348a1.346 1.346 0 0 0 1.369-.921 4.705 4.705 0 0 1-1.145-.311 5.758 5.758 0 0 0-1.468-.312 1.322 1.322 0 0 0-1.369.86M106.624 51.258c.376.095.739.233 1.083.411.458.236.949.403 1.456.498a1.344 1.344 0 0 0 1.456-.772 5.574 5.574 0 0 1-1.108-.373 6.034 6.034 0 0 0-1.419-.46 1.304 1.304 0 0 0-1.456.721M104.222 51.93c.364.134.71.31 1.033.523.43.284.9.503 1.394.647a1.356 1.356 0 0 0 1.531-.622 5.472 5.472 0 0 1-1.083-.51 5.593 5.593 0 0 0-1.369-.598 1.243 1.243 0 0 0-1.506.56ZM101.783 52.354c.351.168.681.377.983.622.398.326.843.59 1.319.784a1.346 1.346 0 0 0 1.581-.473 5.777 5.777 0 0 1-1.021-.597c-.382-.3-.8-.551-1.244-.747a1.32 1.32 0 0 0-1.568.41M99.356 52.54c.332.197.637.436.909.71.367.363.787.669 1.244.908a1.382 1.382 0 0 0 1.631-.31 5.235 5.235 0 0 1-.959-.71 5.912 5.912 0 0 0-1.244-.859 1.246 1.246 0 0 0-1.593.261" fill="#FEFEFE"/><path d="M89.812 23.47v-.261a5.106 5.106 0 0 0-.66-.884c-.286-.348-.597-.585-.846-.945-.25-.361-.423-.772-.722-1.12-.46-.585-.51-.772-1.356-.598-.274 0-1.245.174-.921.349a19.187 19.187 0 0 1 3.472 2.663l.249.386c.133.189.234.399.298.622a2.923 2.923 0 0 1-.323-.361.823.823 0 0 0-1.245 0 4.767 4.767 0 0 1 1.917 1.12c0-.261-.1-.871.112-.97" fill="#323A45"/><path d="M87.77 20.36c.138.285.337.522.499.808.07.102.15.197.236.286.249.274.46.598.796.697v-.224a5.75 5.75 0 0 0-.945-1.754 5.09 5.09 0 0 0-1.158-1.245 5.899 5.899 0 0 1 1.705 1.805c.207.296.398.604.573.92.112.237 0 .523.149.735 0-.311.274-.51.15-.747a65.81 65.81 0 0 0-1.357-2.489 3.983 3.983 0 0 0-3.136-1.73c-.162 0-.772 0-.772.212.71.61 1.718 1.083 2.49 1.692.333.29.608.64.808 1.033" fill="#323A45"/><path d="M88.28 18.492c.4.648.61 1.37.972 2.041.1.175.186.349.298.523.112.174.274.51.274.348a1.406 1.406 0 0 0-.087-.46 23.386 23.386 0 0 0-1.083-2.414c.2.348.361.71.573 1.033.211.323.224.448.385.672v.137c0 .05 0 0 .075.074-.087-.858-.286-1.692-.435-2.489-.971-.896-2.215-2.489-3.535-2.887-.124.224.1.411.212.573.56.933 1.742 1.941 2.327 2.912" fill="#323A45"/><path d="M89.426 17.709c.336.983.299 2.003.66 2.962.087.224.323-.1.335-.2.083-.644.02-1.3-.186-1.916-.125-.336-.262-.66-.374-.996.273.493.518 1 .735 1.519a7.678 7.678 0 0 0 0-1.606 3.916 3.916 0 0 1-.15-.746 1.394 1.394 0 0 0-.348-.548 12.856 12.856 0 0 0-2.489-2.19l-.2.062c.113.436.884 1.182 1.084 1.568.385.655.713 1.342.983 2.053" fill="#323A45"/><path d="M90.844 18.542c0 .473 0 .946-.087 1.431a.983.983 0 0 0 .187.61.137.137 0 0 0 .1 0c.183-.453.251-.945.199-1.431a19.59 19.59 0 0 0-.212-3.086c.263 1.32.421 2.66.473 4.007a7.005 7.005 0 0 0 .386-2.315 5.378 5.378 0 0 0-.486-1.929c-.245-.46-.56-.88-.933-1.244-.087-.1-.485-.448-.547-.286-.063.161.286.634.373.82a7.467 7.467 0 0 1 .547 3.423ZM92.4 20.21l.1.062c.073.05.126.126.149.212 0 .124.311.112.36 0a3.435 3.435 0 0 0 1.009-1.817c0-.336 0-.859-.2-.958-.198-.1-.149.224-.186.36-.127.428-.29.844-.485 1.245-.175.311-.51.51-.747.846M93.197 20.72c-.137.274.186.336.348.523.622-.834.734-.672 1.07-1.046a1.368 1.368 0 0 0 .1-1.53 9.8 9.8 0 0 0-1.058 1.443 2.737 2.737 0 0 0-.46.635M90.06 22.151c0 .1.137.311.187.249.196-.195.307-.458.311-.734a.761.761 0 0 0 0-.125c.043-.31.043-.623 0-.933-.274.087-.348.36-.473.572a.66.66 0 0 0-.087.486c-.006.164.015.328.063.485ZM91.43 20.483a1.12 1.12 0 0 0-.71 1.058c0 .162-.212.423 0 .41a.485.485 0 0 1 .548.287c0 .125 0 0 .1 0a2.031 2.031 0 0 1 .173-1.543c0-.062 0-.187-.074-.174" fill="#323A45"/><path d="M91.84 21.99a1.394 1.394 0 0 1 .498-1.245c.087-.075 0-.237-.174-.299a.111.111 0 0 0-.112 0 1.144 1.144 0 0 0-.498 1.568c0 .112.286.062.286 0" fill="#323A45"/><path d="M92.55 21.069a.784.784 0 0 0 .298-.2c0-.062 0-.161-.087-.186-.087-.025-.299.137-.386.273a1.158 1.158 0 0 0-.36.896c.12-.296.302-.563.534-.784ZM92.4 22.126c.184-.091.346-.223.473-.385.15-.2.286-.075.36-.224a.323.323 0 0 0 0-.336c-.198-.1-.335 0-.497.112a1.12 1.12 0 0 0-.46.82c0 .076.124 0 .186 0M93.333 21.566c.1.063.274 0 .324.125.05.124.075.1.087.149.087.286-.174.56 0 .809.15-.212.46-.485.597-.697.116-.186.254-.357.411-.51.249-.224.896-.448 1.058-.772.107-.262.174-.539.199-.821 0-.1.112-.286 0-.311-.112-.025-.821.348-.983.485-.349.274-.61.585-.946.871-.293.194-.564.42-.809.672" fill="#323A45"/><path d="M94.889 21.64c-.349.312-.921.847-.871 1.245 0 .137.386 0 .56.1.174.1 0 .15 0 .236h.522c.162 0 0 .2.113.274.112.075.236.112.26 0a4.977 4.977 0 0 1 1.631-1.742c.2-.112.15-.61 0-.647-.635-.125-1.48.784-1.692 1.406-.075-.61.746-1.133.933-1.245.187-.112.162-.41 0-.435-.423-.062-1.145.448-1.469.734M96.059 22.997c-.108.134-.18.292-.212.46 0 .15-.336.536-.211.623.124.087.298-.1.36 0 .337.572.685.211.722.523 0 .074.224 0 .274 0 .423-.46 1.655-1.245 1.543-1.98-.286-.186-.66 0-.92.188-.262.186-.623.56-.797.684-.174.124 0-.075 0-.087.32-.39.692-.734 1.107-1.02.162-.1.237-.449 0-.523-.398-.162-1.12.386-1.443.684-.324.299-.299.311-.436.46" fill="#323A45"/><path d="M96.37 26.544a.771.771 0 0 0 .323-.112c.402-.226.753-.53 1.033-.896.2-.311.473-.56.672-.871 0-.063.087-.187 0-.162-.087.025-.336.299-.535.423.398-.672.946-.958.784-1.63 0-.125-.647.473-.796.634-.15.162-.46.312-.51.548a6.948 6.948 0 0 0 0 .859c0 .1.074.261 0 .398-.075.137 0 .15-.075.1-.075-.05 0-.337-.25-.3-.248.038-.148.25-.31.25 0-.361.547-.672.137-.884-.2-.112-.349.162-.573.187 0-.1.175-.162.212-.274a.174.174 0 0 0-.162-.2c-.172.08-.338.172-.498.275.087-.162.274-.436.1-.535-.174-.1-.386.161-.597.236 0-.2.186-.398.074-.547-.112-.15-.41 0-.647 0 .087-.175.274-.349.174-.486-.1-.137-.547 0-.834 0 0-.15.25-.298.137-.398-.112-.1-.61.075-.784.324v-.125c.147-.284.178-.614.088-.92 0-.138-.312 0-.411-.075.137-.063.36-.125.386-.262.025-.137 0-.274-.112-.286a1.133 1.133 0 0 0-.996.66v.174c0 .05 0 0 0 0v-.187a.174.174 0 0 0-.311-.062c-.174.124-.373.36-.535.473 0-.224.249-.548 0-.647-.25-.1-.336.224-.535.348a.274.274 0 0 0-.324-.423.958.958 0 0 0-.498.846 1.892 1.892 0 0 1-.1-.535c0-.1-.136-.187-.161-.174a.513.513 0 0 0-.189.541.511.511 0 0 0 .09.18c.111.162.373.162.485.35a.658.658 0 0 1 0 .223c0-.075-.087-.15-.162-.162-.075-.012-.2-.074-.2 0 0 .075-.173.622-.099.784.075.162.087.635.374.76a6.384 6.384 0 0 1 3.024 2.028 9.433 9.433 0 0 1 3.148-.51" fill="#323A45"/><path d="M101.522 22.189s.137 0 .137.062-.137 0-.212 0c-.074 0 0-.062 0-.112s.1 0 .125 0M100.327 23.645c-.062 0-.124.111-.174.074-.05-.037 0-.087 0-.137 0-.05-.112-.137-.075-.162a.201.201 0 0 1 .287 0v.187" fill="#FEFEFE"/><path d="M99.68 21.156s0-.112.1-.15a.898.898 0 0 1 .261-.062c.099 0 .087-.162.112-.224.077-.524.185-1.044.323-1.555-.036.46-.036.921 0 1.38 0 .113.212.163.336.225.125.062.15-.1.15-.174.079-.796.025-1.6-.162-2.377 0 0-.274.199-.311.211-1.245.697-.871 2.639-.76 2.763" fill="#323A45"/><path d="M101.845 32.48a4.841 4.841 0 0 1-1.244-2.489v-.174c0-.013.087-.286.099-.46a.388.388 0 0 0 .237.198c.087 0 0-.111.099-.1.1.013-.074.076 0 .138.075.062-.261.174-.261.31.06.45.231.879.498 1.245.057.141.163.256.299.324a.133.133 0 0 0 .125-.014.125.125 0 0 0 .044-.048.127.127 0 0 0 .017-.063.67.67 0 0 0 0-.41 9.062 9.062 0 0 1-.522-1.046c.398.573.672 1.42 1.443 1.519.1 0 .149-.175.075-.262-.473-.584-.834-1.132-1.245-1.692 0 0-.124 0-.174-.075a4.333 4.333 0 0 0-1.157-.497s-.075-.088 0-.1c.074-.012.211 0 .211-.137v-.323c0-.063-.249 0-.373.111-.124.113-.112 0-.137 0a.384.384 0 0 1-.286.137c-.187 0-.162-.224-.187-.385-.025-.162 0-.063-.074-.063a6.42 6.42 0 0 1-.971 0s-.075-.087-.112-.136c-.037-.05 0 0 0-.075s.124.1.15.087c.024-.012.061-.236.086-.349.025-.111.112.088.162 0 .287-.332.53-.7.722-1.095.299-.522.348-.858.647-1.393v-.137c0-.038.137-.274.249-.386.112-.112-.137-.125-.087-.174.05-.05.174-.1.162-.125-.013-.025-.125-.112-.125-.174 0-.062.1-.112.137-.187.037-.074-.075-.161 0-.248h.087c.199.111.137.236.075.373-.062.137.174 0-.075.373 0 .1.087.162 0 .361-.087.2-.211.212-.249.336-.07.239-.108.486-.112.734-.03.314-.11.62-.236.909-.087.224-.311.398-.373.634-.063.237.074.237.211.187.137-.05.075-.15.15-.212 0 .224 0 .672.323.548s0-.373 0-.535c0-.162 0 0 0 0a.318.318 0 0 0 .174.199.15.15 0 0 0 .123.01.146.146 0 0 0 .053-.032.144.144 0 0 0 .036-.053c0-.186-.125-.286-.212-.435h.112l.112.1a.277.277 0 0 0 .305-.107.286.286 0 0 0 .044-.105c0-.125-.112-.187-.224-.25.112-.111.286 0 .323-.235.037-.237-.124-.212-.162-.324-.037-.112.311 0 .336-.187.025-.186-.161-.162-.286-.124-.124.037 0-.087 0-.112a.61.61 0 0 0 .386-.25.688.688 0 0 0-.423-.21v-.063c0-.062.074.062.112 0 .037-.062 0-.062.074-.062.075 0 .324-.112.336-.224.013-.112-.36-.112-.311-.299.05-.186.175-.1.224-.186.05-.087-.161-.162-.137-.237.025-.075.287-.075.336-.211.05-.137-.124-.15-.224-.212-.099-.062 0 0 0-.075a.4.4 0 0 0 .436-.186v-.137c0-.038-.212-.112-.187-.15.025-.037.399 0 .423-.174.025-.174-.199-.186-.298-.31.162 0 .386.086.423-.1.037-.187-.249-.112-.336-.274.249 0 .684 0 .734-.311.05-.311-.286-.075-.46-.087a.075.075 0 0 0 0-.088c.261-.087.622-.111.622-.435 0-.125-.174-.187-.286-.174-.112.012-.262.323-.511.31.109-.1.205-.212.287-.335 0-.137.161-.237.149-.373-.012-.137-.162 0-.249 0s-.087.199-.174.286c-.087.087-.087 0-.1 0-.012 0 0-.137 0-.2 0-.062 0-.298-.074-.298a.335.335 0 0 0-.287.224c-.099-.124 0-.311-.174-.311s-.174.274-.162.448c-.099-.137-.199-.41-.385-.336-.423.174-.274.66-.473 1.02v-.634h-.075c-.423.26-.348.784-.423 1.244a8.115 8.115 0 0 1-.423 1.68 6.146 6.146 0 0 1-.983 1.593 9.822 9.822 0 0 1-.996.784 5.54 5.54 0 0 0-1.244.958c-.137.15-.274.324-.174.51.1.187.124 0 .161-.074a.385.385 0 0 0 .2.124c.211 0 .174-.199.124-.336-.05-.137.124.112.199.137.075.025.2-.187.274-.311.024.008.05.008.075 0a.548.548 0 0 1-.125.435c-.087.088-.236-.1-.311 0-.075.1 0 .125 0 .137 0 .013.249-.112.348-.062.1.05 0 .162-.087.187-.087.025-.274 0-.336-.075-.186.087-.398 0-.597 0a.41.41 0 0 1-.224-.1c-.398-.36-.398-1.032-.349-.858.05.174-.149.199-.161.311-.013.112.149.087.211.249.063.162-.087.261 0 .311a.399.399 0 0 1 .087.635v.261c0 .05 0 .15-.136.174.112.075.224.2.224.286l5.836 3.734a.323.323 0 0 0 .411 0l.161-.585Z" fill="#323A45"/><path d="M101.733 20.645c.262-.298.461-.734.859-.908a8.182 8.182 0 0 0-.635.933v.2a.849.849 0 0 0 .461-.15c.199-.124.423-.174.51-.299.189-.3.332-.627.423-.97a.22.22 0 0 0 .019-.098.217.217 0 0 0-.025-.097.217.217 0 0 0-.156-.116c-.363 0-.72.099-1.033.286a2.5 2.5 0 0 0-.896.883.276.276 0 0 0 0 .336.258.258 0 0 0 .353.093.26.26 0 0 0 .095-.093M102.99 20.608c-.174.112-.46.062-.498.36v.175c.151.043.285.13.386.249.212-.2.436-.548.299-.784h-.199M103.525 20.197a.917.917 0 0 0-.286.2s.125 0 .149.111c.025.112-.174.56 0 .535.175-.024.287 0 .374 0 .324-.257.566-.603.697-.995-.299-.174-.635.062-.921.174M104.832 21.579c.236-.237.411-.486.348-.61-.062-.125-.373-.162-.609-.15a.95.95 0 0 0-.647.436.649.649 0 0 1 .522.2c0 .124-.087.26-.186.373.161.062.472-.137.572-.25Z" fill="#323A45"/><path d="M102.94 21.504c0 .074 0 .199.088.186.286 0 .497.15.746.137a.969.969 0 0 0 .361-.41c0-.224-.348-.187-.547-.187a.748.748 0 0 0-.648.274ZM103.961 22.164c0-.224-.535-.274-.859-.312-.323-.037-.249.175-.211.2.199.211.373.174.572.36.199.187.523-.136.498-.248Z" fill="#323A45"/><path d="M104.409 21.803c-.149 0-.398 0-.411.124-.012.125.274.162.237.299-.038.137-.274.261-.436.36-.162.1 0 .25.162.25a2.56 2.56 0 0 0 1.518-.672 1.166 1.166 0 0 0-1.07-.361ZM103.202 22.4a.447.447 0 0 0-.286 0s-.137.162-.088.199c.05.037.386.299.573.46 0-.161.261-.087.261-.161 0-.075-.274-.299-.46-.398M103.14 23.395c0-.286-.299-.485-.56-.622-.262-.137-.486.2-.349.262s.075.286.423.398c.349.112.473.074.486 0M105.38 23.097a.54.54 0 0 0-.536-.287 3.517 3.517 0 0 0-.796.262c.286.112.336.373.523.448.186.075.46-.137.821-.311v-.112M104.533 23.819a1.573 1.573 0 0 0-.547-.61c-.125 0-.262 0-.349-.112-.087-.112-.074.062 0 .087.075.025.162.186.1.274-.062.087-.423.074-.56.273a1.244 1.244 0 0 0 1.419.087M102.132 23.209a.945.945 0 0 1-.175.373c-.087 0-.062.212-.161.324-.1.112 0 .062 0 .062.348-.124.448-.572.497-.398a.526.526 0 0 0-.199-.361" fill="#323A45"/><path d="M102.318 23.806c.1.038.211.038.311 0a.206.206 0 0 0 .092-.174.21.21 0 0 0-.092-.174l-.199-.162c0 .1.075.187 0 .286-.074.1-.112.125-.162.212M103.164 18.928c.15 0 .336.1.386.211a.732.732 0 0 1 0 .697v.125c.523-.411.585-1.245.884-1.842.256-.473.457-.974.597-1.493a2.236 2.236 0 0 0-.162-1.58c-.099-.175-.497.422-.597.621-.1.153-.183.316-.249.486-.097.319-.227.627-.386.92-.149.274-.336.635-.51.884-.299.46-.585.697-.908 1.12.236 0 .697-.211.933-.15M103.961 19.762c.162.224.423-.075.61.236.186.311 0 .411.074.448.61.212.511-.46.672-.796.411-.796.672-1.394 1.083-2.252.23-.308.415-.648.548-1.008a4.06 4.06 0 0 0-.087-2.178s0-.1-.1-.063c-.473.51-.535 1.245-.884 1.805-.348.56-.684 1.033-.945 1.593-.336.747-.61 1.493-.971 2.215ZM108.03 17.995a.993.993 0 0 0-.249.386 7.22 7.22 0 0 1-.759 1.891 3.19 3.19 0 0 1-.56.672c-.311.336-.896.436-1.107.722 0 .087.373.212.46.386.087.174-.274.261-.199.498a3.395 3.395 0 0 0 1.692-.697c.37-.32.613-.761.685-1.245a12.05 12.05 0 0 0 1.779-1.941 7.736 7.736 0 0 0 1.357-2.738c0-.174.261-.585.311-.734.046-.268.02-.542-.075-.797-.397.361-.737.781-1.008 1.245a30.819 30.819 0 0 1-2.327 2.489" fill="#323A45"/><path d="M109.685 19.214c-.472.383-.917.799-1.331 1.245a.658.658 0 0 0-.162.249 2.49 2.49 0 0 1-.846 1.319 3.21 3.21 0 0 1-1.879.759l-.075.075c-.075.074.075.31.174.286a8.035 8.035 0 0 0 2.912-1.108c.66-.435.946-1.244 1.543-1.742 1.071-.871 2.975-1.692 2.912-3.845-.132.042-.254.11-.36.199-.473.435-1.096 1.17-1.618 1.555-.523.386-.772.635-1.245 1.008" fill="#323A45"/><path d="M110.955 21.69c.149-.086.249-.223.398-.323.252-.186.471-.413.647-.672 0 0 .087-.162.1-.137a5.866 5.866 0 0 0 1.145-1.58s0-.262-.1-.25c-.376.127-.727.321-1.033.573a11.39 11.39 0 0 0-2.364 1.668 9.131 9.131 0 0 1-1.581 1.518c-.306.196-.637.35-.983.46-.515.193-1.043.347-1.58.461 0 0 0 .1-.087.15-.088.05 0 .062 0 .062a6.788 6.788 0 0 0 1.866-.187c.784-.187 1.531-.236 2.278-.473-1.408.527-2.892.82-4.393.871-.145.046-.28.117-.399.212.255.137.547.19.834.15.971 0 1.979-.113 2.937-.163-.373.212-.846.087-1.244.336.398.063.385.51.634.51a7.2 7.2 0 0 0 2.191-.335c.236-.088.485-.175.709-.274.308-.11.58-.304.784-.56l.137-.175a.645.645 0 0 0-.697-.136c-.529.185-1.069.335-1.618.448a.447.447 0 0 1-.311 0 6.703 6.703 0 0 0 2.277-1.02c.436-.35 1.357-.96 1.581-1.47-.473-.136-1.431.337-1.879.424-.187 0-.386.174-.585.224a.975.975 0 0 1 .323-.311M109.511 24.889c-.485.087-.946.074-1.418.137-.286.062-.557.18-.797.348.125.112.187.299.336.373.299.108.623.13.933.063.212 0 .436 0 .573-.224-.087 0-.137-.187-.087-.2.249-.099.448-.111.61-.323.161-.212-.15-.174-.15-.174Z" fill="#323A45"/><path d="M107.159 25.188c.174 0 .473-.075.473-.274a.575.575 0 0 0-.535-.523 25.037 25.037 0 0 1-2.564-.211c-.311.273-.734.236-1.095.336a7.07 7.07 0 0 0 3.734.672" fill="#323A45"/><path d="M103.289 25.324s-.162-.087-.087-.087a5.78 5.78 0 0 1 1.58.398c.216.103.441.186.672.25a3.337 3.337 0 0 0 1.942 0c-.088-.262-.287-.56-.598-.56a6.769 6.769 0 0 1-3.484-.747c-.448.087-.262 1.244-.224 1.244.137.299.51.349.759.56-.311-.087-.896-.535-.909 0a1 1 0 0 0 .175.448 3.73 3.73 0 0 0 1.331 1.157 1.625 1.625 0 0 0 1.245.324c.149 0 .087-.261 0-.373-.087-.112-.262-.087-.399-.112a5.199 5.199 0 0 1-2.215-1.419c.448.212.772.585 1.245.834a1.95 1.95 0 0 0 1.506.373c.199 0 0-.386-.075-.41l-.548-.212a2.686 2.686 0 0 1-.784-.373c.573.124 1.095.485 1.705.348 0-.311-.249-.485-.435-.672a5.2 5.2 0 0 0-2.365-1.033" fill="#323A45"/><path d="M107.719 25.897c-.074 0 0 .199-.099.236a2.581 2.581 0 0 1-1.071.063c-.224 0-.423 0-.647-.075 0 0 .511.498.386.71-.124.21-.149.323 0 .36.149.038.423 0 .473-.15a.744.744 0 0 0-.261-.572l.348.162a.96.96 0 0 0 .373 0 7.49 7.49 0 0 0 1.046-.186.61.61 0 0 0-.573-.623M104.048 27.776c-.398-.286-.684-.66-1.058-.958 0 .074-.137 0-.174 0-.037 0 0 .311 0 .435.193.325.456.602.772.81.291.223.609.411.945.56a.859.859 0 0 0 .647.111c.125 0 .1-.224 0-.274-.323-.286-.759-.435-1.12-.709M103.525 28.2c-.261-.212-.448-.498-.721-.698h-.162a.56.56 0 0 0 0 .61c.372.49.871.869 1.443 1.095.137 0 .386.112.486 0 .099-.112-.075-.249-.137-.31-.311-.312-.597-.474-.933-.76M103.289 29.008c-.311-.249-.51-.547-.809-.809h-.1c-.024 0-.186.361-.112.46.374.598.996 1.345 1.693 1.332.124 0 .099-.398 0-.473a2.813 2.813 0 0 0-.722-.522" fill="#323A45"/><path d="M103.152 29.867c-.361-.423-.697-.772-1.07-1.183 0-.074-.249-.136-.299 0a.408.408 0 0 0 0 .399 5.775 5.775 0 0 0 1.506 1.394.186.186 0 0 0 .236 0c.237-.212-.149-.386-.323-.585M102.368 29.866a9.055 9.055 0 0 1-.672-.759c0-.062-.274 0-.249.063.348.626.798 1.19 1.332 1.667h.236c.062 0 .075-.212 0-.274-.249-.261-.423-.473-.659-.734M102.592 24.18c-.274 0-.236-.113-.485-.1-.249.012-.286-.062-.349 0-.062.062-.112.323-.186.348-.075.025 0 .548 0 .598a.894.894 0 0 0 .784.423c.112 0 .323 0 .385-.125.063-.124 0-.174-.136-.187.112-.062 0-.26 0-.348 0-.087-.374 0-.536-.199.262 0 .56 0 .71-.174.149-.174-.087-.274-.224-.274" fill="#323A45"/><path d="M102.604 26.606c.15-.062 0-.236 0-.31 0-.076-.41-.063-.609-.175-.199-.112-.212-.087-.274-.174-.062-.087-.162-.1-.1-.087.324 0 .672.323.983.1 0 0 .075-.225 0-.25a1.946 1.946 0 0 1-.597-.174 2.864 2.864 0 0 1-.373-.311c-.087-.087-.249 0-.212.074.038.075-.112.436-.112.461v.336c0 .087.1.174.199.212.124.072.253.134.386.186.249.062.486.212.747.112M102.43 27.079c-.149-.174-.423-.112-.634-.224a3.265 3.265 0 0 1-.56-.423c-.125-.112-.175.174-.1.261-.162-.211 1.095.598 1.132.61.038.012.249-.125.162-.224ZM102.293 27.676c.212-.298-.261-.385-.522-.473-.262-.087-.436-.335-.66-.485-.224-.15 0 0-.112.075.224.187 0 .299 0 .423.224.373 1.021.771 1.245.46" fill="#323A45"/><path d="M101.92 27.975c-.062-.112-.199-.1-.324-.15a1.35 1.35 0 0 1-.535-.447c-.112-.137-.373 0-.348 0a1.757 1.757 0 0 0 1.244.834c.112 0 0-.162 0-.237M100.626 27.8c-.174.138-.237 0-.286.063-.262.46.56.983.883 1.083.324.1.299-.162.237-.336-.063-.174-.623-.983-.834-.81ZM105.293 20.57a.689.689 0 0 1-.125.92v.064a4.092 4.092 0 0 0 1.133-.81c.179-.161.338-.345.472-.547.265-.39.487-.806.66-1.244.07-.166.112-.343.124-.523.016-.164.072-.322.162-.46a4.53 4.53 0 0 0 1.095-1.494 4.527 4.527 0 0 0 0-3.26.685.685 0 0 0-.211.249c-.162.298-.386.983-.51 1.244a6.007 6.007 0 0 1-.971 1.718c-.2.217-.364.465-.485.734-.536 1.107-.959 2.227-1.382 3.347M99.27 27.838s-.138.1-.113.15c.025.05 0 .435.162.448.162.012.125-.772.15-.436 0-.112-.15-.087-.2-.162Z" fill="#323A45"/><path d="M97.465 28.734a.361.361 0 0 0 .212-.174v-.062c0-.063 0-.075 0 0 0 .074.236 0 .273-.15.038-.149 0 .088 0 .112 0 .025.137.112.137.175a.186.186 0 0 1-.179.195.187.187 0 0 1-.095-.021c0 .299-.423.336-.697.286 0 0-.1.075-.136.087-.038.013-.324.062-.411-.074-.087-.137 0-.15.075-.224v.062h.112c.063-.067.118-.143.161-.224 0-.063.1 0 .175.087.11.018.224.018.336 0" fill="#FEFEFE"/><path d="M149.333 15.307h-.522l-.523.162-.336.348-.174.697-.087 1.033v7.342a4.657 4.657 0 0 1-4.306 2.49 4.303 4.303 0 0 1-4.144-2.49v-8.898l-.174-.522-.523-.162h-.684l-.088-.1v-.161l.088-.087h.945l1.382.087 1.381-.087h.958l.087.087v.161l-.087.1h-.659l-.511.162-.174.522v8.388a2.654 2.654 0 0 0 2.85 2.165c1.556 0 3.024-1.045 3.024-2.165v-6.832l-.087-1.033-.174-.697-.336-.348-.523-.162h-.523l-.087-.1v-.161l.087-.087h.784l1.245.087 1.244-.087h.647l.087.087v.161l-.087.1ZM150.478 27.229a1.245 1.245 0 1 1 1.245-1.245c.009.166-.017.332-.077.487a1.168 1.168 0 0 1-.681.681c-.155.06-.321.086-.487.077ZM156.924 27.378a3.508 3.508 0 0 1-2.762-.946h-.087l-.685.685h-.174l-.087-.075-.174-3.895.087-.174h.261l.087.174.336.946c.697 1.904 1.73 2.85 3.037 2.85h.161a2.36 2.36 0 0 0 1.772-.665 2.366 2.366 0 0 0 .717-1.75c0-1.244-.871-2.252-2.762-2.937-2.489-.908-3.373-1.904-3.373-3.634s1.556-3.198 3.883-3.198c.86-.02 1.697.287 2.339.859h.088l.609-.597h.162l.087.087v3.198l-.087.174h-.249l-.087-.174-.348-.958a2.924 2.924 0 0 0-2.489-2.153h-.087a2.026 2.026 0 0 0-2.027 1.308c-.101.27-.144.557-.126.845 0 1.244.597 1.78 2.762 2.489 2.166.709 3.373 1.978 3.373 3.808a3.724 3.724 0 0 1-1.21 2.766 3.732 3.732 0 0 1-2.859.967M163.022 27.229a1.245 1.245 0 1 1 1.245-1.245 1.164 1.164 0 0 1-.34.905 1.173 1.173 0 0 1-.905.34ZM174.471 27.067h-1.033l-2.078-.087-1.381.087h-1.046l-.087-.087v-.187l.087-.075h.784l.523-.174.174-.523v-10.03l-.174-.522-.523-.162h-.697l-.087-.1v-.162l.087-.087h.959l1.381.088 2.078-.088h1.033a5.536 5.536 0 0 1 5.712 5.7v.348a5.96 5.96 0 0 1-5.712 6.06Zm-.435-11.685h-1.058l-.523.174-.174.348v10.23l.174.348.523.174h1.033c2.601 0 4.069-2.078 4.069-5.625 0-3.546-1.468-5.625-4.069-5.625M188.347 22.475h-5.414l-.087.174v.61c0 2.066.859 3.285 2.414 3.285a2.49 2.49 0 0 0 2.489-2.252l.088-.087h.174a.399.399 0 0 1 .348.435 3.247 3.247 0 0 1-3.285 2.589 3.834 3.834 0 0 1-4.07-4.144v-.175a4.074 4.074 0 0 1 4.07-4.318c1.979 0 3.285 1.469 3.372 3.734l-.099.149Zm-3.46-3.46c-1.132 0-1.817 1.133-1.954 3h3.51l.174-.175c0-1.866-.61-2.825-1.73-2.825ZM194.233 27.229a2.762 2.762 0 0 1-2.489-1.033v4.144l.174.348.523.175h.597l.087.087v.161l-.087.087h-.858l-1.245-.087-1.244.087h-.784l-.125-.087v-.174l.087-.087h.523l.51-.174.174-.349V19.625l-.174-.348-.51-.175h-.436l-.087-.087v-.174l.087-.075h2.763l.087.075v1.469a3.027 3.027 0 0 1 2.601-1.718c2.078 0 3.46 1.643 3.46 4.144 0 2.502-1.469 4.493-3.634 4.493Zm-.349-7.865c-.858 0-1.642.697-2.078 1.904v3.97a2.091 2.091 0 0 0 1.991 1.244c1.245 0 2.166-1.394 2.166-3.634s-.697-3.546-2.079-3.546M205.333 27.228a1.656 1.656 0 0 1-1.555-1.555 2.676 2.676 0 0 1-2.489 1.555 2.163 2.163 0 0 1-2.295-1.246 2.15 2.15 0 0 1-.194-.906c0-1.643 1.469-2.49 4.318-2.49h.436l.087-.086v-2.104a1.528 1.528 0 0 0-1.556-1.244 2.053 2.053 0 0 0-1.381.523v1.244a1.018 1.018 0 0 1-.958.697.684.684 0 0 1-.772-.784c0-1.033 1.73-2.24 3.46-2.24h.087a2.812 2.812 0 0 1 2.812 1.717v5.625l.175.349.261.261.348.087.511-.174h.174l.087.087v.174a2.49 2.49 0 0 1-1.643.51h.087Zm-1.729-4.144-.087-.087h-.436c-1.643 0-2.588.747-2.588 1.991a1.31 1.31 0 0 0 .349 1.056 1.325 1.325 0 0 0 1.032.413 1.856 1.856 0 0 0 1.73-1.307v-2.066ZM212.8 21.156a.823.823 0 0 1-.784-.697v-.087l.61-.598a.517.517 0 0 0-.149-.373.516.516 0 0 0-.374-.15c-.684 0-1.244 1.07-1.643 2.938v3.982l.175.348.522.174h.685l.087.075v.187l-.087.074h-.946l-1.244-.074-1.245.074h-.771l-.088-.074v-.187l.088-.075h.522l.51-.174.175-.348v-6.372l-.175-.523-.51-.174h-.435l-.087-.087v-.174l.087-.075h2.588l.087.075v2.315c.349-1.73 1.046-2.589 2.166-2.589a1.244 1.244 0 0 1 1.381 1.381 1.097 1.097 0 0 1-.247.847 1.099 1.099 0 0 1-.786.398M217.516 27.229a2.228 2.228 0 0 1-2.165-1.245v-6.62l-.087-.087h-1.12l-.087-.088v-.174l.087-.087 1.033-.162.174-.174.349-1.73.174-.174 1.045-.522.162.174v2.327l.087.1h2.165l.088.074v.348l-.088.088h-2.165l-.087.087v5.799c0 .946.261 1.468.871 1.468s.859-.435.859-1.244v-1.12l.087-.087c.261 0 .523.261.523.697v.423a1.805 1.805 0 0 1-1.905 1.904M234.155 27.055h-.697l-1.245-.075-1.244.075h-.747l-.074-.075v-.187l.074-.075h.436l.523-.174.174-.348V20.31a1.309 1.309 0 0 0-1.307-.859c-.771 0-1.555.697-2.016 1.904v4.84l.174.35.511.173h.435l.087.075v.187l-.087.075h-.659l-1.245-.075-1.244.075h-.697l-.087-.075v-.187l.087-.075h.435l.523-.174.174-.348V20.31a1.303 1.303 0 0 0-1.306-.859c-.772 0-1.556.697-2.016 1.904v4.84l.174.35.522.173h.424l.087.075v.187l-.087.075h-.66l-1.244-.075-1.245.075h-.784l-.087-.075v-.187l.087-.075h.523l.522-.174.175-.348v-6.57l-.175-.35-.522-.174h-.436l-.087-.087v-.174l.087-.075h2.738l.087.075v1.643a3.2 3.2 0 0 1 2.713-1.892 2.363 2.363 0 0 1 2.252 1.892 3.11 3.11 0 0 1 2.676-1.892 2.488 2.488 0 0 1 2.389 1.805v5.799l.175.348.51.174h.473l.087.075v.187l-.336.075ZM241.97 22.475h-5.364l-.087.174v.61c0 2.066.859 3.285 2.414 3.285a2.492 2.492 0 0 0 2.489-2.252l.087-.087h.175a.399.399 0 0 1 .348.435 3.249 3.249 0 0 1-3.298 2.589 3.829 3.829 0 0 1-3.843-2.527 3.852 3.852 0 0 1-.214-1.617v-.175a4.068 4.068 0 0 1 1.092-3.039 4.054 4.054 0 0 1 2.965-1.279c1.991 0 3.298 1.469 3.373 3.734l-.137.149Zm-3.46-3.46c-1.132 0-1.817 1.133-1.954 3h3.51l.174-.175c0-1.866-.61-2.825-1.73-2.825ZM251.913 27.054h-.772l-1.244-.074-1.307.074h-.771l-.087-.074v-.187l.087-.075h.51l.523-.174.174-.349v-5.799a1.36 1.36 0 0 0-1.245-.945c-.958 0-1.729.697-2.165 1.99v4.755l.174.348.523.174h.51l.087.075v.187l-.087.074h-.771l-1.245-.074-1.244.074h-.772l-.087-.074v-.187l.087-.075h.523l.51-.174.174-.349v-6.57l-.174-.349-.51-.174h-.647l-.087-.087v-.174l.087-.075h2.762l.087.075v1.642a3.12 3.12 0 0 1 2.85-1.891 2.388 2.388 0 0 1 2.34 1.804v5.8l.174.348.51.174h.523l.087.075v.187l-.087.074ZM255.111 27.229a2.226 2.226 0 0 1-2.165-1.245v-6.62l-.075-.087h-1.132l-.087-.088v-.174l.087-.087 1.045-.162.162-.174.348-1.73.174-.174 1.033-.522.175.174v2.327l.087.1h2.165l.087.074v.348l-.087.088h-2.165l-.087.087v5.799c0 .946.261 1.468.871 1.468.609 0 .858-.435.858-1.244v-1.12l.087-.087c.262 0 .523.261.523.697v.423a1.805 1.805 0 0 1-1.904 1.929ZM141.68 44.95a3.735 3.735 0 0 1-3.895-4.07v-.174a4.087 4.087 0 0 1 1.079-3.094 4.096 4.096 0 0 1 3.003-1.312 3.732 3.732 0 0 1 3.895 4.057v.175a4.098 4.098 0 0 1-1.074 3.093 4.112 4.112 0 0 1-2.995 1.324h-.013Zm.1-8.214c-1.382 0-2.079 1.245-2.079 3.883s.697 3.895 2.079 3.895c1.381 0 2.078-1.245 2.078-3.895s-.697-3.883-2.078-3.883ZM151.822 34.31a.823.823 0 0 1-.871-.872v-.074l.61-.61a1.238 1.238 0 0 0-1.045-.523c-.735 0-1.245.697-1.245 1.643v2.489l.087.087h1.817l.087.087v.336l-.087.087h-1.842l-.087.087v6.832l.175.349.522.174h.772l.087.087v.174l-.087.087h-.946l-1.381-.087-1.419.137h-.697l-.087-.087v-.174l.087-.087h.572l.511-.175.174-.348v-6.857l-.087-.087h-1.12l-.087-.087v-.162l.087-.087 1.033-.174.174-.175v-1.903a3.1 3.1 0 0 1 2.937-2.589h.087c1.244 0 2.165.685 2.165 1.63a.934.934 0 0 1-.858.871M165.212 33.015h-.522l-.523.25-.423.435-.261.523-3.547 10.553-.174.087h-.523l-.174-.087-3.708-11.163-.436-.423-.523-.175h-.522l-.087-.087v-.174l.087-.087h.871l1.381.087 1.381-.087h1.469l.087.087v.174l-.087.087h-.772l-.522.175-.175.336v.261l2.688 8.052.088.336.087-.336 2.414-7.704V33.7l-.174-.336-.175-.174-.51-.175h-.697l-.087-.087v-.174l.087-.087h1.133l1.033.087 1.033-.087h.783l.088.087v.174l-.088.087ZM170.937 40.183h-5.351l-.087.175v.61c0 2.078.858 3.285 2.414 3.285A2.488 2.488 0 0 0 170.34 42l.087-.074h.174a.388.388 0 0 1 .336.423 3.247 3.247 0 0 1-3.285 2.6 3.83 3.83 0 0 1-4.057-4.156v-.174a4.059 4.059 0 0 1 1.096-3.035 4.068 4.068 0 0 1 2.961-1.283c1.991 0 3.285 1.468 3.372 3.808l-.087.074Zm-3.46-3.447c-1.12 0-1.804 1.12-1.941 2.987h3.509l.175-.174c0-1.867-.61-2.813-1.743-2.813ZM174.708 44.95a2.193 2.193 0 0 1-2.153-1.245v-6.633l-.087-.087h-1.133l-.075-.087v-.162l.075-.087 1.045-.174.175-.174.348-1.73.162-.174 1.045-.523.174.174v2.34l.088.087h2.153l.087.087v.336l-.087.087h-2.153l-.088.087v5.8c0 .945.249 1.468.859 1.468s.871-.436.871-1.245v-1.132l.087-.087c.262 0 .511.261.511.697v.435a1.83 1.83 0 0 1-.53 1.374 1.83 1.83 0 0 1-1.374.53M184.601 40.184H179.2l-.087.174v.61c0 2.078.871 3.285 2.427 3.285A2.488 2.488 0 0 0 183.954 42l.087-.074h.174a.383.383 0 0 1 .334.272c.015.049.02.1.015.15a3.261 3.261 0 0 1-3.286 2.602 3.844 3.844 0 0 1-4.069-4.157v-.174a4.073 4.073 0 0 1 2.452-3.986 4.071 4.071 0 0 1 1.617-.332c1.991 0 3.286 1.468 3.373 3.808l-.05.075Zm-3.46-3.448c-1.12 0-1.817 1.12-1.953 2.987h3.509l.174-.174c0-1.867-.61-2.813-1.73-2.813ZM190.487 38.889a.835.835 0 0 1-.784-.684v-.087l.61-.61a.502.502 0 0 0-.145-.37.513.513 0 0 0-.365-.153c-.697 0-1.307 1.07-1.643 2.95v3.97l.162.348.523.174h.696l.088.087v.174l-.088.087h-.958l-1.244-.087-1.245.087h-.784l-.087-.087v-.174l.087-.087h.523l.51-.174.187-.349v-6.396l-.187-.523-.51-.162h-.436l-.087-.087v-.174l.087-.087h2.514l.087.087v2.327c.336-1.73 1.033-2.588 2.153-2.588a1.247 1.247 0 0 1 1.394 1.38 1.094 1.094 0 0 1-1.045 1.245M198.402 44.95a1.681 1.681 0 0 1-1.556-1.556 2.683 2.683 0 0 1-2.489 1.555 2.179 2.179 0 0 1-2.426-2.165c0-1.643 1.468-2.489 4.33-2.489h.436l.087-.087v-2.09a1.541 1.541 0 0 0-1.568-1.245c-.509 0-1 .185-1.381.523v1.244a1.01 1.01 0 0 1-.946.684.694.694 0 0 1-.754-.467.707.707 0 0 1-.03-.317c0-1.032 1.73-2.24 3.459-2.24h.088a2.8 2.8 0 0 1 2.849 1.73v5.613l.175.348.261.261.348.088.523-.175h.162l.087.087v.175a2.49 2.49 0 0 1-1.643.522h-.012Zm-1.618-4.157-.087-.087h-.436c-1.642 0-2.601.746-2.601 1.99a1.33 1.33 0 0 0 1.394 1.47 1.88 1.88 0 0 0 1.73-1.245v-2.128ZM210 44.8h-.784l-1.244-.087-1.394.087h-.784l-.087-.087v-.174l.087-.087h.523l.522-.175.174-.348v-5.812a1.353 1.353 0 0 0-1.244-.958c-.946 0-1.73.697-2.153 1.991v4.754l.174.348.511.175h.522l.087.087v.174l-.087.087h-.734l-1.244-.087-1.245.087h-.784l-.087-.087v-.174l.087-.087h.523l.522-.175.175-.348v-6.57l-.175-.35-.522-.161h-.436l-.087-.087v-.174l.087-.087h2.775l.087.087v1.642a3.085 3.085 0 0 1 2.85-1.904 2.386 2.386 0 0 1 2.34 1.817v5.787l.162.348.522.175h.523l.087.087v.174L210 44.8ZM213.957 44.95a2.75 2.75 0 0 1-2.078-.697h-.087l-.523.522h-.174l-.087-.087-.162-2.85.075-.087h.261l.087.162c.56 1.643 1.556 2.65 2.688 2.65h.088a1.528 1.528 0 0 0 1.642-1.518c0-.746-.61-1.356-2.078-1.816-1.904-.61-2.601-1.382-2.601-2.589s1.132-2.34 2.949-2.34a2.578 2.578 0 0 1 1.805.66h.075l.485-.485h.137l.087.087v2.327l-.087.087h-.262l-.087-.174c-.373-1.245-1.244-2.128-2.153-2.128h-.087a1.406 1.406 0 0 0-1.555 1.444c0 .684.597 1.244 1.978 1.555 1.73.436 2.688 1.381 2.688 2.676a2.684 2.684 0 0 1-1.912 2.508 2.69 2.69 0 0 1-1.112.093ZM232.288 44.8h-.821l-1.382-.087-1.381.087h-1.244l-.088-.087v-.174l.088-.087h.597l.523-.174.174-.175.087-.348v-.249l-1.108-3.024-.161-.124h-3.983l-.174.124-.859 2.65v.51l.162.35.262.26.522.175H224l.087.087v.174L224 44.8h-.958l-1.033-.087-1.033.087h-.709l-.087-.087v-.174l.087-.087h.435l.51-.261.436-.436.261-.51 3.634-10.292.174-.174.598-.087.609-.174.175.174 3.808 11.063.336.523.522.174h.523l.087.087v.174l-.087.087Zm-6.484-10.204-.174-.61-.174.61-1.767 5.227H227.596l-1.792-5.227ZM243.015 34.31a.824.824 0 0 1-.859-.86v-.086l.61-.61a1.245 1.245 0 0 0-1.045-.523c-.747 0-1.245.697-1.245 1.643v2.489l.088.087h1.816l.088.087v.336l-.088.087h-1.816l-.088.087v6.87l.175.348.522.174h.772l.087.087v.137l-.087.087h-.958l-1.382-.087-1.381.087h-.684l-.088-.087v-.112l.088-.087h.51l.522-.174.175-.349v-6.869l-.087-.087h-3.112l-.087.087v6.87l.175.348.51.174h.522l.088.087v.137l-.088.087h-.696l-1.382-.087-1.381.087h-.685l-.087-.087v-.137l.087-.087h.511l.522-.174.175-.349v-6.869l-.088-.087h-1.12l-.087-.087v-.162l.087-.087 1.033-.174.175-.174v-1.73a3.208 3.208 0 0 1 3.111-2.601 2.912 2.912 0 0 1 2.339 1.132 3.427 3.427 0 0 1 2.589-1.244c1.244 0 2.165.684 2.165 1.643a.935.935 0 0 1-.871.858l-.05-.05Zm-4.268-.56a1.843 1.843 0 0 0-1.73-1.245 1.56 1.56 0 0 0-1.167.515 1.567 1.567 0 0 0-.389 1.215V36.4l.087.087h3.112l.087-.087v-2.65Z" fill="#fff"/><path d="M249.076 44.95a1.681 1.681 0 0 1-1.556-1.556 2.7 2.7 0 0 1-2.489 1.556 2.165 2.165 0 0 1-2.427-2.166c0-1.642 1.469-2.489 4.319-2.489h.435l.087-.087v-2.09a1.514 1.514 0 0 0-1.555-1.245 2.055 2.055 0 0 0-1.382.523v1.244a1.015 1.015 0 0 1-.958.685.684.684 0 0 1-.771-.784c0-1.033 1.729-2.24 3.459-2.24h.087a2.813 2.813 0 0 1 2.85 1.73v5.612l.174.348.262.262.348.087.51-.175h.175l.087.088v.174a2.49 2.49 0 0 1-1.643.523h-.012Zm-1.631-4.157-.087-.087h-.435c-1.643 0-2.589.747-2.589 1.991a1.31 1.31 0 0 0 .059.566 1.306 1.306 0 0 0 .761.81c.178.071.37.103.562.093a1.87 1.87 0 0 0 1.729-1.245v-2.128ZM255.485 44.8h-.697l-1.382-.087-1.381.087h-.647l-.087-.087v-.174l.087-.087h.522l.511-.175.174-.348v-6.596l-.174-.348-.511-.162h-.522l-.087-.087v-.174l.087-.087h2.763l.087.087v7.342l.174.348.523.175h.522l.075.087v.174l-.037.112Zm-2.253-10.03a1.044 1.044 0 0 1-.756-1.78 1.048 1.048 0 0 1 1.612.152 1.049 1.049 0 0 1-.125 1.317 1.045 1.045 0 0 1-.731.31ZM261.557 38.889a.823.823 0 0 1-.784-.684v-.088l.61-.61a.517.517 0 0 0-.149-.373.506.506 0 0 0-.374-.149c-.684 0-1.244 1.07-1.642 2.95v3.97l.174.347.523.175h.697l.074.087v.174l-.074.087h-.959l-1.244-.087-1.307.087h-.771l-.087-.087v-.174l.087-.087h.522l.511-.175.174-.348v-6.396l-.174-.523-.511-.162h-.497l-.088-.087v-.174l.088-.087h2.588l.087.087v2.327c.349-1.73 1.045-2.589 2.165-2.589a1.248 1.248 0 0 1 1.026.357 1.24 1.24 0 0 1 .356 1.025 1.079 1.079 0 0 1-.594 1.134 1.078 1.078 0 0 1-.439.11M266.149 44.95a2.748 2.748 0 0 1-2.078-.698h-.087l-.523.523h-.161l-.088-.087-.174-2.85.087-.087h.249l.087.162c.56 1.643 1.556 2.65 2.688 2.65h.087a1.534 1.534 0 0 0 1.513-.909c.085-.192.129-.399.13-.609 0-.746-.61-1.356-2.078-1.817-1.904-.61-2.589-1.38-2.589-2.588 0-1.207 1.12-2.34 2.937-2.34a2.624 2.624 0 0 1 1.817.66l.486-.485h.136l.088.087v2.327l-.088.087h-.261l-.087-.174c-.373-1.245-1.244-2.128-2.153-2.128H266a1.408 1.408 0 0 0-1.556 1.443c0 .685.598 1.245 1.992 1.556 1.717.435 2.675 1.381 2.675 2.675a2.676 2.676 0 0 1-3.024 2.601" fill="#fff"/><path opacity=".2" d="M60.978 7.467h-1.245v44.8h1.245v-44.8Z" fill="#fff"/><path d="M9.346 43.88 0 14.061h7.23l3.547 12.607c.995 3.584 1.904 6.944 2.6 10.665h.125a138.434 138.434 0 0 1 2.65-10.528l3.76-12.744h6.968L17.061 43.93l-7.715-.05ZM31 36.226l-2.08 7.653h-6.794L31 14.013h8.711l9.085 29.866h-7.193l-2.253-7.653H31Zm7.404-5.04-1.817-6.297c-.523-1.767-1.046-3.982-1.481-5.75h-.087c-.423 1.768-.859 4.02-1.344 5.75l-1.73 6.322 6.459-.025Z" fill="#fff"/></g><defs><clipPath id="a"><path fill="#fff" d="M0 0h269.173v56H0z"/></clipPath></defs></svg>